<?xml version="1.0" encoding="utf-8"?>
<!-- Generator: Adobe Illustrator 23.0.1, SVG Export Plug-In . SVG Version: 6.00 Build 0)  -->
<svg version="1.1" xmlns="http://www.w3.org/2000/svg" xmlns:xlink="http://www.w3.org/1999/xlink" x="0px" y="0px"
	 viewBox="0 0 1220.27 351.36" style="enable-background:new 0 0 1220.27 351.36;" xml:space="preserve">
<style type="text/css">
	.st0{fill:#60A1E7;}
	.st1{fill:#FFFFFF;}
	.st2{fill:none;stroke:#000000;stroke-width:7;stroke-miterlimit:10;}
	.st3{opacity:0.3;stroke:#6DB892;stroke-width:9;stroke-linecap:round;stroke-miterlimit:10;}
	.st4{opacity:0.3;fill:none;stroke:#000000;stroke-width:5;stroke-linecap:round;stroke-miterlimit:10;}
	.st5{opacity:0.3;fill:#FFFFFF;}
	.st6{fill:none;stroke:#FFFFFF;stroke-width:5;stroke-linecap:round;stroke-miterlimit:10;}
	.st7{opacity:0.3;fill:#FFFFFF;stroke:#6DB892;stroke-width:9;stroke-linecap:round;stroke-miterlimit:10;}
	.st8{opacity:0.3;fill:#FFFFFF;stroke:#000000;stroke-width:5;stroke-linecap:round;stroke-miterlimit:10;}
	.st9{fill:#FFFFFF;stroke:#FFFFFF;stroke-width:5;stroke-linecap:round;stroke-miterlimit:10;}
	.st10{fill:#3B536D;}
	.st11{fill:#9BCFC2;}
	.st12{fill:#566E8C;}
	.st13{fill:none;}
	.st14{fill:#F2DD90;}
	.st15{fill:#5F8FB5;}
	.st16{fill:#EEFBFF;}
	.st17{fill:#DFECFA;}
	.st18{fill:#E4ECF4;}
	.st19{fill:#B1BAC5;}
	.st20{fill:#D8DDE2;}
	.st21{opacity:0.42;fill:#D8DDE2;}
	.st22{fill:#4F97E3;}
	.st23{fill:#5CAD96;}
	.st24{fill:#DDBD58;}
	.st25{fill:#625FA0;}
	.st26{fill:#A9A2ED;}
	.st27{fill:#6B6B6B;}
	.st28{fill:none;stroke:#60A1E7;stroke-width:3;stroke-miterlimit:10;}
	.st29{fill:none;stroke:#FCBB29;stroke-linecap:round;stroke-miterlimit:10;}
	.st30{fill:none;stroke:#E5B451;stroke-width:0.3;stroke-linecap:round;stroke-miterlimit:10;}
	.st31{fill:none;stroke:#FCBB29;stroke-width:0.3;stroke-linecap:round;stroke-miterlimit:10;}
	.st32{fill:none;stroke:#B2B2B2;stroke-width:0.3;stroke-linecap:round;stroke-miterlimit:10;}
	.st33{fill:none;stroke:#828282;stroke-miterlimit:10;}
	.st34{fill:none;stroke:#828282;stroke-width:0.3;stroke-miterlimit:10;}
</style>
<g id="Capa_2">
	<path class="st10" d="M210.52,175.74c5.82,11.02,17.83,19.84,32.14,23.62c5.09,1.34,10.25,2,15.41,2c10.66,0,21.27-2.86,31.04-8.4
		c2.19,4.87,4,12.28,1.12,21.16c-3.27,10.11-13.29,21.13-27.55,21.47c-13.51,0.3-16.63-2.7-25.93-11.64
		c-0.94-0.9-1.92-1.85-2.98-2.84c-13.04-12.36-35.69-13.76-50.5-3.13c-2.17,1.57-2.67,4.6-1.11,6.77c1.57,2.18,4.6,2.68,6.77,1.11
		c9.82-7.06,27.5-7.83,38.17,2.29c1.03,0.98,2,1.91,2.93,2.8c9.53,9.16,14.93,14.36,31,14.36c0.61,0,1.23-0.01,1.87-0.03
		c0.91-0.02,1.79-0.1,2.66-0.18c7.52,13.32,6.61,31.35-2.3,41.63c-8.27,9.55-17.15,14.8-27.04,16.01
		c1.26-7.29,0.32-13.82-0.85-18.32c-3.8-14.65-14.51-27.15-25.47-29.74c-2.6-0.61-5.22,1-5.83,3.61c-0.62,2.61,1,5.22,3.61,5.83
		c6.35,1.5,15.16,10.62,18.3,22.73c1.86,7.18,3.02,21-10.16,33.04c-10.16,9.27-24.4,11.74-37.15,6.43
		c-9.75-4.05-16.56-11.67-19.13-21.08v-62.52c13.92,5.91,17.2,15.88,21.26,28.13c3.74,11.31,7.97,24.13,22,33.71
		c0.83,0.58,1.78,0.86,2.73,0.86c1.53,0,3.07-0.74,4-2.12c1.51-2.21,0.95-5.22-1.26-6.73c-11.31-7.76-14.69-17.96-18.26-28.77
		c-4.38-13.21-9.29-28.13-30.47-35.46v-76.5c7.67,1.19,16.21-1.72,25.17-4.79c20.88-7.16,44.55-15.27,70.81,18.1
		c0.97,1.22,2.39,1.86,3.83,1.86c1.04,0,2.09-0.34,2.98-1.04c2.12-1.65,2.49-4.7,0.82-6.81c-30.54-38.76-60.02-28.68-81.58-21.3
		c-8.93,3.06-16.67,5.72-22.03,4.05V45.67c0.03-0.07,0.06-0.15,0.08-0.22c5.86-18.91,21.32-24.75,34.02-22.17
		c10.3,2.1,21.6,10.59,21.33,27.64c-9.01,2.23-17.62,7.13-25.73,14.66c-1.96,1.82-2.08,4.89-0.25,6.85
		c1.82,1.97,4.89,2.08,6.85,0.25c11-10.22,22.39-14.55,34.84-13.22c13.76,1.46,25.58,8.85,32.43,20.28
		c6.61,11.03,7.87,24.17,3.57,36.36c-1.3,0.04-2.58,0.11-3.83,0.18c-7.11,0.38-12.72,0.69-19.75-4.14
		c-5.63-3.86-11.52-11.5-12.01-19.85c-0.16-2.68-2.43-4.72-5.12-4.56c-2.68,0.15-4.72,2.45-4.56,5.12
		c0.59,10.23,6.95,20.94,16.2,27.29c9.75,6.69,18.25,6.23,25.76,5.83c9-0.49,16.78-0.91,28.33,9.55c6.65,6.02,9.89,14.43,9.12,23.66
		c-0.82,9.72-6.12,18.83-13.83,23.76c-12.91,8.25-27.77,10.76-41.86,7.04c-11.55-3.05-21.53-10.24-26.03-18.77
		c-1.25-2.37-4.18-3.27-6.55-2.02C210.18,170.44,209.27,173.38,210.52,175.74z"/>
	<g>
		<path class="st11" d="M159.54,94.95v13.58H71.27c-2.33,3.92-6.59,6.56-11.49,6.56c-7.38,0-13.36-5.98-13.36-13.35
			c0-7.38,5.98-13.36,13.36-13.36c4.9,0,9.16,2.64,11.49,6.57H159.54z"/>
	</g>
	<g>
		<path class="st10" d="M141.84,275.28c-2.76-9.18-11.28-15.88-21.36-15.88c-12.32,0-22.31,9.99-22.31,22.32
			c0,12.32,9.99,22.31,22.31,22.31c9.82,0,18.14-6.36,21.12-15.17h17.93v-13.58H141.84z M130.53,285.11
			c-1.42,4.2-5.38,7.22-10.05,7.22c-5.86,0-10.61-4.75-10.61-10.61c0-5.87,4.75-10.62,10.61-10.62c4.79,0,8.84,3.19,10.16,7.55
			c0.29,0.97,0.45,2,0.45,3.07C131.09,282.91,130.89,284.05,130.53,285.11z"/>
	</g>
	<g>
		<path class="st0" d="M130.12,56.57c0,0.56-0.05,1.11-0.13,1.65v-3.3C130.07,55.46,130.12,56.01,130.12,56.57z"/>
		<path class="st0" d="M140.99,51.43c-2.32-9.84-11.14-17.17-21.69-17.17c-12.33,0-22.32,9.99-22.32,22.31
			c0,12.32,9.99,22.31,22.32,22.31c9.33,0,17.32-5.74,20.65-13.87h19.58V51.43H140.99z M119.3,67.4c-5.98,0-10.83-4.85-10.83-10.83
			c0-5.98,4.85-10.83,10.83-10.83c5.41,0,9.89,3.98,10.69,9.18c0.08,0.54,0.13,1.09,0.13,1.65c0,0.56-0.05,1.11-0.13,1.65
			C129.19,63.41,124.71,67.4,119.3,67.4z"/>
	</g>
	<g>
		<path class="st0" d="M159.54,194.25v13.58H58.53c-2.56,5.51-8.14,9.35-14.62,9.35c-8.91,0-16.14-7.23-16.14-16.14
			S35,184.9,43.91,184.9c6.48,0,12.06,3.84,14.62,9.35H159.54z"/>
	</g>
	<g>
		<path class="st11" d="M631.65,180.26V236h-11.63v-14.02c-5.47,9.23-16.07,14.87-30.95,14.87c-20.35,0-32.83-10.6-32.83-26.16
			c0-13.85,8.89-25.48,34.71-25.48h28.55v-5.47c0-15.39-8.72-23.77-25.48-23.77c-11.63,0-22.57,4.1-29.92,10.6l-5.47-9.06
			c9.06-7.69,22.4-12.14,36.59-12.14C618.49,145.38,631.65,157.01,631.65,180.26z M619.51,208.99v-14.7H591.3
			c-17.44,0-23.08,6.84-23.08,16.07c0,10.43,8.38,16.93,22.74,16.93C604.64,227.28,614.73,220.78,619.51,208.99z"/>
		<path class="st11" d="M661.91,117.68c0-4.62,3.93-8.55,8.89-8.55c4.96,0,8.89,3.76,8.89,8.38c0,4.96-3.76,8.89-8.89,8.89
			C665.84,126.4,661.91,122.47,661.91,117.68z M664.65,146.07h12.14V236h-12.14V146.07z"/>
	</g>
	<g>
		<path class="st10" d="M466.33,203.34c0,20.69-16.41,32.66-47.87,32.66h-61.89V116.32h58.47c29.92,0,45.31,12.48,45.31,31.12
			c0,11.97-6.15,21.2-15.9,26.33C457.78,178.04,466.33,188.3,466.33,203.34z M384.09,137.18v28.21h27.53
			c13.51,0,20.86-4.79,20.86-14.19c0-9.4-7.35-14.02-20.86-14.02H384.09z M438.46,200.44c0-10.09-7.69-14.88-22.06-14.88h-32.31
			v29.58h32.31C430.77,215.14,438.46,210.7,438.46,200.44z"/>
		<path class="st10" d="M542.58,142.65v24.62c-2.22-0.17-3.93-0.34-5.98-0.34c-14.71,0-24.45,8.04-24.45,25.65V236h-26.67v-91.99
			h25.48v12.14C517.44,147.26,528.39,142.65,542.58,142.65z"/>
		<path class="st10" d="M800.06,183.34V236h-26.67v-48.56c0-14.88-6.84-21.71-18.64-21.71c-12.82,0-22.06,7.87-22.06,24.79V236
			h-26.67v-91.99h25.48v10.77c7.18-7.86,17.95-12.14,30.44-12.14C783.64,142.65,800.06,155.3,800.06,183.34z"/>
		<path class="st10" d="M924.35,190.01c0,28.9-20,47.36-45.82,47.36c-12.31,0-22.23-3.93-28.9-11.97V236h-25.48V109.14h26.67v44.63
			c6.84-7.52,16.24-11.11,27.7-11.11C904.35,142.65,924.35,161.11,924.35,190.01z M897.34,190.01c0-15.9-10.09-25.48-23.42-25.48
			c-13.34,0-23.43,9.57-23.43,25.48s10.09,25.48,23.43,25.48C887.25,215.48,897.34,205.91,897.34,190.01z"/>
		<path class="st10" d="M935.28,190.01c0-27.7,21.37-47.36,50.61-47.36s50.44,19.66,50.44,47.36c0,27.7-21.2,47.36-50.44,47.36
			S935.28,217.71,935.28,190.01z M1009.32,190.01c0-15.9-10.09-25.48-23.42-25.48s-23.6,9.57-23.6,25.48s10.26,25.48,23.6,25.48
			S1009.32,205.91,1009.32,190.01z"/>
		<path class="st10" d="M1199.27,144.02L1165.93,236h-25.65l-20.69-57.11L1098.22,236h-25.65l-33.17-91.99h25.13l21.71,62.23
			l22.57-62.23h22.57l21.89,62.23l22.4-62.23H1199.27z"/>
	</g>
	<g>
		<rect x="159.53" y="145.91" class="st1" width="0.01" height="9.93"/>
		<rect x="159.53" y="232.34" class="st1" width="0.01" height="10.38"/>
	</g>
	<g>
		<path class="st11" d="M89.83,230.44c-2.36-4.17-6.83-6.99-11.97-6.99c-7.61,0-13.77,6.17-13.77,13.78
			c0,7.6,6.16,13.77,13.77,13.77c5.14,0,9.61-2.82,11.98-6.98h69.7v-13.58H89.83z M77.86,243.53c-3.48,0-6.3-2.82-6.3-6.3
			s2.82-6.31,6.3-6.31c3.48,0,6.3,2.83,6.3,6.31S81.34,243.53,77.86,243.53z"/>
	</g>
	<g>
		<path class="st10" d="M107.64,144.5c-3.38-10.62-14.25-17.28-25.47-15.11c-12.1,2.33-20.01,14.04-17.68,26.13
			c2.34,12.1,14.04,20.02,26.14,17.68c8.3-1.6,14.62-7.6,17.03-15.12h51.85V144.5H107.64z M86.92,162.12
			c-5.98,0-10.83-4.85-10.83-10.83s4.85-10.82,10.83-10.82s10.82,4.84,10.82,10.82S92.9,162.12,86.92,162.12z"/>
	</g>
</g>
<g id="CIRCULOS">
</g>
<g id="Capa_4">
</g>
<g id="Capa_3">
</g>
</svg>
