<?xml version="1.0" encoding="utf-8"?>
<!-- Generator: Adobe Illustrator 23.0.1, SVG Export Plug-In . SVG Version: 6.00 Build 0)  -->
<svg version="1.1" id="Capa_1" xmlns="http://www.w3.org/2000/svg" xmlns:xlink="http://www.w3.org/1999/xlink" x="0px" y="0px"
	 viewBox="0 0 1018.74 1428.34" style="enable-background:new 0 0 1018.74 1428.34;" xml:space="preserve">
<style type="text/css">
	.st0{opacity:0.8;}
	.st1{fill:#DDE4F4;}
	.st2{fill:#DFE6F6;}
	.st3{fill:#F2F5FA;}
	.st4{fill:#96A7C5;}
	.st5{fill:#889BB5;}
	.st6{fill:#748AA5;}
	.st7{fill:#86CFCF;}
	.st8{fill:#44D8A7;stroke:#40E4B0;stroke-miterlimit:10;}
	.st9{opacity:0.8;fill:none;stroke:#B0BFD6;stroke-width:8;stroke-linejoin:round;stroke-miterlimit:10;}
	.st10{opacity:0.8;fill:#C6D1E5;stroke:#B0BFD6;stroke-width:8;stroke-miterlimit:10;}
	.st11{fill:#C6D1E5;}
	.st12{fill:#3EC19B;}
	.st13{opacity:0.3;}
	.st14{fill:#FFFFFF;}
	.st15{fill:#82E0C9;}
	.st16{fill:#003EB7;}
	.st17{fill:#86B1FF;}
	.st18{fill:#3BA6B2;}
	.st19{fill:#2EC3C5;}
	.st20{fill:none;}
	.st21{fill:#C0F2E4;}
	.st22{fill:#A3EFDB;}
	.st23{fill:url(#SVGID_1_);}
	.st24{fill:#B0BFD6;}
	.st25{fill:none;stroke:#DFE6F6;stroke-width:0.2;stroke-miterlimit:10;}
	.st26{fill:#ECF0F9;}
	.st27{fill:url(#SVGID_2_);}
	.st28{fill:url(#SVGID_3_);}
	.st29{fill:#8EA1BC;}
	.st30{fill:#42B88E;}
	.st31{fill:url(#SVGID_4_);}
	.st32{fill:#41D6A5;}
	.st33{fill:#B3EFDB;}
	.st34{fill:#8DE6C9;}
	.st35{fill:url(#SVGID_5_);}
	.st36{fill:url(#SVGID_6_);}
	.st37{clip-path:url(#SVGID_8_);fill:#F2F5FA;}
	.st38{clip-path:url(#SVGID_8_);}
	.st39{opacity:0.5;stroke:#96A7C5;stroke-width:0.25;stroke-miterlimit:10;}
	.st40{fill:none;stroke:#B7B7B7;stroke-miterlimit:10;}
	.st41{fill:#7ACEB2;}
	.st42{fill:#30B58C;}
	.st43{fill:#6AAA95;}
	.st44{fill:#67C1A5;}
	.st45{fill:none;stroke:#3EC19B;stroke-miterlimit:10;}
	.st46{opacity:0.15;fill:none;stroke:#000000;stroke-width:0.5;stroke-miterlimit:10;}
	.st47{clip-path:url(#SVGID_12_);fill:#F2F5FA;}
	.st48{clip-path:url(#SVGID_12_);}
	.st49{clip-path:url(#SVGID_18_);fill:#F2F5FA;}
	.st50{clip-path:url(#SVGID_18_);}
	.st51{clip-path:url(#SVGID_24_);fill:#F2F5FA;}
	.st52{clip-path:url(#SVGID_24_);}
	.st53{fill:#AABBE9;}
	.st54{fill:#3D3FD0;}
	.st55{fill:#2C299E;}
	.st56{fill:#2E31B6;}
	.st57{fill:#333858;}
	.st58{fill:#2A81CE;}
	.st59{fill:#357BED;}
	.st60{fill:#91D9CC;}
	.st61{fill:#8CC5DE;}
	.st62{fill:#4F97E3;}
	.st63{fill:#1E6DC2;}
	.st64{opacity:0.3;fill:#FFFFFF;stroke:#28B890;stroke-width:9;stroke-linecap:round;stroke-miterlimit:10;}
	.st65{opacity:0.3;fill:#FFFFFF;stroke:#000000;stroke-width:5;stroke-linecap:round;stroke-miterlimit:10;}
	.st66{opacity:0.3;fill:#FFFFFF;}
	.st67{fill:#FFFFFF;stroke:#FFFFFF;stroke-width:5;stroke-linecap:round;stroke-miterlimit:10;}
	.st68{clip-path:url(#SVGID_28_);}
	.st69{clip-path:url(#SVGID_30_);}
	.st70{clip-path:url(#SVGID_32_);}
	.st71{clip-path:url(#SVGID_34_);}
	.st72{clip-path:url(#SVGID_36_);}
	.st73{clip-path:url(#SVGID_38_);}
	.st74{fill:url(#SVGID_39_);}
	.st75{clip-path:url(#SVGID_41_);}
	.st76{fill:url(#SVGID_42_);}
	.st77{fill:none;stroke:#B0BFD6;stroke-width:2;stroke-linecap:round;stroke-miterlimit:10;}
	.st78{fill:none;stroke:#B0BFD6;stroke-width:2;stroke-linecap:round;stroke-miterlimit:10;stroke-dasharray:0.4894,4.8937;}
	.st79{fill:none;stroke:#B0BFD6;stroke-width:2;stroke-linecap:round;stroke-miterlimit:10;stroke-dasharray:0.5413,5.4134;}
	.st80{fill:none;stroke:#B0BFD6;stroke-width:2;stroke-linecap:round;stroke-miterlimit:10;stroke-dasharray:0.5168,5.1678;}
	.st81{fill:none;stroke:#B0BFD6;stroke-width:2;stroke-linecap:round;stroke-miterlimit:10;stroke-dasharray:0.5018,5.0181;}
	.st82{fill:none;stroke:#B0BFD6;stroke-width:2;stroke-linecap:round;stroke-miterlimit:10;stroke-dasharray:0.5161,5.1609;}
	.st83{clip-path:url(#SVGID_44_);}
	.st84{fill:none;stroke:#B0BFD6;stroke-width:2;stroke-linecap:round;stroke-miterlimit:10;stroke-dasharray:0.5206,5.2063;}
	.st85{fill:none;stroke:#B0BFD6;stroke-width:2;stroke-linecap:round;stroke-miterlimit:10;stroke-dasharray:0.5109,5.1089;}
	.st86{fill:none;stroke:#B0BFD6;stroke-width:2;stroke-linecap:round;stroke-miterlimit:10;stroke-dasharray:0.5088,5.0876;}
	.st87{fill:none;stroke:#B0BFD6;stroke-width:2;stroke-linecap:round;stroke-miterlimit:10;stroke-dasharray:0.5121,5.1213;}
	.st88{fill:none;stroke:#B0BFD6;stroke-width:2;stroke-linecap:round;stroke-miterlimit:10;stroke-dasharray:0.4874,4.8744;}
	.st89{fill:url(#SVGID_45_);}
	.st90{clip-path:url(#SVGID_47_);}
	.st91{fill:url(#SVGID_48_);}
	.st92{clip-path:url(#SVGID_50_);}
	.st93{fill:url(#SVGID_51_);}
	.st94{clip-path:url(#SVGID_53_);}
	.st95{fill:url(#SVGID_54_);}
	.st96{fill:none;stroke:#BCD2FA;stroke-width:4.5;stroke-opacity:0.3;}
	.st97{fill-rule:evenodd;clip-rule:evenodd;fill:#001C9D;}
	.st98{fill:none;stroke:#246BEE;stroke-width:1.916;stroke-linecap:round;stroke-linejoin:round;}
	.st99{fill-rule:evenodd;clip-rule:evenodd;fill:#3C6DD1;}
	.st100{fill:none;stroke:#001C9D;stroke-width:1.1496;stroke-linecap:round;stroke-linejoin:round;}
	.st101{fill-rule:evenodd;clip-rule:evenodd;fill:#246BEE;}
	.st102{opacity:0.95;}
	.st103{fill-rule:evenodd;clip-rule:evenodd;fill:#00CD90;}
	.st104{fill-rule:evenodd;clip-rule:evenodd;fill:#BCD2FA;}
	.st105{opacity:0.95;fill-rule:evenodd;clip-rule:evenodd;fill:#001C9D;enable-background:new    ;}
	.st106{opacity:0.95;fill-rule:evenodd;clip-rule:evenodd;fill:#246BEE;enable-background:new    ;}
	.st107{fill:none;stroke:#001C9D;stroke-width:1.916;stroke-linecap:round;stroke-linejoin:round;}
	.st108{fill:none;stroke:#001C9D;stroke-width:2.1479;stroke-linecap:round;stroke-linejoin:round;}
	.st109{fill:none;stroke:#FFFFFF;stroke-width:1.1496;stroke-linecap:round;stroke-linejoin:round;}
	.st110{fill:none;stroke:#001C9D;stroke-width:1.7032;stroke-linecap:round;stroke-linejoin:round;}
	.st111{fill:none;stroke:#286CEE;stroke-width:1.7032;stroke-linecap:round;stroke-linejoin:round;}
	.st112{fill:#2165E2;stroke:#226AEC;stroke-width:0.5;}
	.st113{fill:none;stroke:#001C9D;stroke-width:2.0625;stroke-linecap:round;stroke-linejoin:round;}
	.st114{fill:none;stroke:#B0BFD6;stroke-width:3;stroke-miterlimit:10;}
	.st115{fill:none;stroke:#C6D1E5;stroke-width:2;stroke-linecap:round;stroke-miterlimit:10;}
	.st116{fill:none;stroke:#C6D1E5;stroke-width:3;stroke-miterlimit:10;}
	.st117{fill:none;stroke:#C6D1E5;stroke-width:3;stroke-linecap:round;stroke-miterlimit:10;}
	.st118{fill:none;stroke:#C6D1E5;stroke-width:4;stroke-linecap:round;stroke-miterlimit:10;}
	.st119{opacity:0.8;fill:none;stroke:#B0BFD6;stroke-width:6;stroke-linejoin:round;stroke-miterlimit:10;}
	.st120{opacity:0.8;fill:#C6D1E5;stroke:#B0BFD6;stroke-width:6;stroke-miterlimit:10;}
	.st121{fill:#80CFC2;}
	.st122{fill:#25A1E9;}
	.st123{fill:#486E8D;}
	.st124{fill:#29526E;}
	.st125{fill:#1D6DC0;}
	.st126{clip-path:url(#SVGID_56_);fill:#EFF3F8;}
	.st127{clip-path:url(#SVGID_56_);}
	.st128{fill:#EFF3F8;}
	.st129{opacity:0.5;stroke:#95A4C4;stroke-width:0.25;stroke-miterlimit:10;}
	.st130{fill:#95A4C4;}
	.st131{fill:#8599B3;}
	.st132{fill:#7588A4;}
	.st133{opacity:0.8;fill:none;stroke:#B5B5B5;stroke-miterlimit:10;}
	.st134{fill:#6CE8B9;stroke:#40E4B0;stroke-miterlimit:10;}
	.st135{fill:#5095E1;}
	.st136{fill:#40BF99;}
	.st137{fill:#6CE8B9;}
	.st138{fill:#367BEB;}
	.st139{fill:#8AE5C1;}
	.st140{fill:none;stroke:#40BF99;stroke-miterlimit:10;}
	.st141{fill:#41D6A5;stroke:#40E4B0;stroke-miterlimit:10;}
	.st142{clip-path:url(#SVGID_58_);fill:#EFF3F8;}
	.st143{clip-path:url(#SVGID_58_);}
	.st144{fill:#F5F5F5;}
	.st145{fill:#C0D9F5;}
	.st146{fill:#96C0EE;}
	.st147{fill:#5096E2;}
	.st148{fill:none;stroke:#67B5F4;stroke-width:2;stroke-linecap:round;stroke-miterlimit:10;}
	.st149{fill:#67B5F4;}
	.st150{fill:none;stroke:#C4CFE3;stroke-width:3;stroke-miterlimit:10;}
	.st151{fill:none;stroke:#5095E1;stroke-width:3;stroke-miterlimit:10;}
	.st152{fill:#42B78D;}
	.st153{fill:#3B536D;}
	.st154{fill:#3B536D;stroke:#5095E1;stroke-width:3;stroke-miterlimit:10;}
	.st155{opacity:0.8;fill:none;stroke:#DDE4F4;stroke-width:8;stroke-linejoin:round;stroke-miterlimit:10;}
	.st156{opacity:0.8;fill:#C4CFE3;stroke:#DDE4F4;stroke-width:8;stroke-miterlimit:10;}
	.st157{fill:none;stroke:#5095E1;stroke-width:3;stroke-linecap:round;stroke-miterlimit:10;}
	.st158{fill:none;stroke:#5095E1;stroke-width:4;stroke-linecap:round;stroke-miterlimit:10;}
	.st159{fill:none;stroke:#67B5F4;stroke-width:4;stroke-linecap:round;stroke-miterlimit:10;}
	.st160{fill:none;stroke:#42B78D;stroke-width:2.5;stroke-linecap:round;stroke-miterlimit:10;}
	.st161{fill:none;stroke:#42B78D;stroke-width:2;stroke-linecap:round;stroke-miterlimit:10;}
	.st162{fill:#41D4A3;}
	.st163{clip-path:url(#SVGID_60_);}
	.st164{fill:#B1EDD9;}
	.st165{fill:#8BE4C7;}
	.st166{fill:#D2F3E8;}
	.st167{fill:#41AB84;}
	.st168{clip-path:url(#SVGID_62_);}
	.st169{clip-path:url(#SVGID_64_);}
	.st170{clip-path:url(#SVGID_66_);}
	.st171{clip-path:url(#SVGID_68_);}
	.st172{fill:none;stroke:#AEBDD4;stroke-width:2;stroke-linecap:round;stroke-miterlimit:10;}
	.st173{fill:none;stroke:#AEBDD4;stroke-width:2;stroke-linecap:round;stroke-miterlimit:10;stroke-dasharray:0.4931,4.9315;}
	.st174{fill:none;stroke:#AEBDD4;stroke-width:2;stroke-linecap:round;stroke-miterlimit:10;stroke-dasharray:0.5027,5.0273;}
	.st175{fill:none;stroke:#AEBDD4;stroke-width:2;stroke-linecap:round;stroke-miterlimit:10;stroke-dasharray:0.5089,5.0895;}
	.st176{fill:none;stroke:#AEBDD4;stroke-width:2;stroke-linecap:round;stroke-miterlimit:10;stroke-dasharray:0.4963,4.9632;}
	.st177{fill:none;stroke:#AEBDD4;stroke-width:2;stroke-linecap:round;stroke-miterlimit:10;stroke-dasharray:0.499,4.9898;}
	.st178{clip-path:url(#SVGID_70_);}
	.st179{fill:#E4F7F1;}
</style>
<g>
	<path class="st144" d="M813.12,547.39v333.55c0,105.05-30,203.44-81.86,287.02c-3.99,6.41-8.09,12.75-12.34,19
		c-1.98,2.91-3.99,5.82-6.02,8.69c-0.02,0.02-0.04,0.06-0.06,0.07c-1.42,2.01-2.85,4.01-4.31,6c-9.08,12.47-18.68,24.57-28.76,36.22
		c-1.75,2.03-3.52,4.06-5.31,6.08c-7.38,8.28-14.99,16.35-22.86,24.16c-99.1,98.75-235.62,159.99-385.71,159.99H0.32V0.17H265.9
		c151.32,0,288.81,62.25,388.11,162.41c8.46,8.52,16.65,17.32,24.51,26.38c5.76,6.62,11.37,13.37,16.78,20.25
		c3,3.77,5.93,7.57,8.82,11.41c2.14,2.87,4.25,5.76,6.34,8.67c7.72,10.72,15.03,21.7,21.96,32.98
		c21.63,35.14,39.37,72.87,52.66,112.62c6.51,19.39,11.93,39.26,16.22,59.54C809.06,470.91,813.12,508.69,813.12,547.39z"/>
	<g class="st0">
		<path class="st1" d="M948.45,1131.38v74.51c0,2.61-1.04,5.09-2.89,6.92c-1.83,1.81-4.29,2.82-6.84,2.82h-0.09l-194.09-2.03
			c0.17-1.86,0.24-3.73,0.24-5.63c0-4.74-0.5-9.38-1.45-13.83l185.68,1.96v-65.92c4.46,0.95,9.1,1.45,13.83,1.45
			C944.72,1131.63,946.6,1131.55,948.45,1131.38z"/>
	</g>
	<g>
		<path class="st32" d="M744.78,1207.97c0,1.9-0.07,3.77-0.24,5.63c-2.85,33.84-31.23,60.4-65.79,60.4
			c-36.46,0-66.03-29.57-66.03-66.03c0-36.46,29.57-66.01,66.03-66.01c31.73,0,58.22,22.35,64.58,52.18
			C744.28,1198.59,744.78,1203.23,744.78,1207.97z"/>
	</g>
	<g class="st0">
		<path class="st1" d="M948.82,539.75c-1.98-0.17-3.97-0.26-5.98-0.26c-4.62,0-9.12,0.47-13.46,1.4l-0.22-56.49
			c4.42,0.95,8.99,1.44,13.68,1.44c1.94,0,3.88-0.09,5.78-0.24L948.82,539.75z"/>
	</g>
	<g class="st0">
		<path class="st1" d="M877.14,612.1l-192.74-0.95l0.39,59.1c-3.3-0.52-6.71-0.78-10.16-0.78c-3.15,0-6.25,0.22-9.28,0.65
			l-0.45-68.68c-0.02-2.59,1.01-5.09,2.85-6.93c1.83-1.83,4.34-2.95,6.92-2.85l203.41,1.01c-0.82,4.16-1.25,8.44-1.25,12.84
			C876.82,607.74,876.94,609.94,877.14,612.1z"/>
	</g>
	<g class="st0">
		<path class="st1" d="M876.82,867.54c0,1.14,0.04,2.27,0.09,3.39l-202.38-1.92c-5.37-0.06-9.68-4.44-9.64-9.79l0.37-58.39
			c3.06,0.45,6.17,0.67,9.36,0.67c3.43,0,6.8-0.26,10.09-0.76l-0.32,48.92l194.38,1.85C877.5,856.63,876.82,862,876.82,867.54z"/>
	</g>
	<g class="st0">
		<path class="st1" d="M878.5,434.67l-319.45-1.01c-2.57,0-5.05-1.04-6.86-2.87c-1.83-1.83-2.83-4.31-2.83-6.88l0.52-137
			c6.13,1.9,12.66,2.91,19.43,2.93l-0.47,124.42l96.59,0.3V288.49c3.17,0.65,6.39,1.06,9.71,1.23c1.19,0.07,2.4,0.11,3.62,0.11
			c2.07,0,4.1-0.09,6.11-0.28v125.03l100.22,0.35V289.31h19.44V415l72.46,0.22c-0.11,1.51-0.17,3.04-0.17,4.59
			C876.82,424.91,877.4,429.89,878.5,434.67z"/>
	</g>
	<g>
		<path class="st125" d="M624.07,186.78c-11.88-17.51-31.93-28.99-54.68-28.99c-36.46,0-66.01,29.55-66.01,66.01
			c0,29.66,19.56,54.77,46.49,63.1c6.13,1.9,12.66,2.91,19.43,2.93h0.09c22.74,0,42.82-11.5,54.68-29.03
			c7.14-10.5,11.32-23.15,11.35-36.78v-0.22C635.42,210.08,631.25,197.33,624.07,186.78z M601.1,255.51c0,1.75-1.42,3.17-3.17,3.17
			h-19.02c-1.75,0-3.17-1.42-3.17-3.17v-11.63c0-3.56-2.78-6.34-6.34-6.34c-3.58,0-6.36,2.78-6.36,6.34v11.63
			c0,1.75-1.42,3.17-3.17,3.17h-19.02c-1.75,0-3.17-1.42-3.17-3.17V224.9l6.34-5.03v32.47h12.68v-8.46c0-6.97,5.72-12.68,12.7-12.68
			c6.95,0,12.68,5.7,12.68,12.68v8.46h12.68v-32.47l6.34,5.03V255.51z M612.2,225.89c-1.06,1.36-3.3,1.55-4.59,0.39l-38.2-30.14
			l-38.22,30.14c-1.29,1.16-3.58,1.01-4.59-0.39c-0.89-1.23-0.67-3.58,0.69-4.59l14.63-11.56v-17.64c0-1.75,1.42-3.17,3.17-3.17
			h8.45c1.75,0,3.17,1.42,3.17,3.17v5.97l10.74-8.48c0.65-0.47,1.3-0.67,1.96-0.65c0.63,0,1.3,0.24,1.94,0.65l40.16,31.71
			C612.55,222.33,613.26,224.53,612.2,225.89z"/>
		<path class="st125" d="M594.77,219.87l6.34,5.03v30.61c0,1.75-1.42,3.17-3.17,3.17h-19.02c-1.75,0-3.17-1.42-3.17-3.17v-11.63
			c0-3.56-2.78-6.34-6.34-6.34c-3.58,0-6.36,2.78-6.36,6.34v11.63c0,1.75-1.42,3.17-3.17,3.17h-19.02c-1.75,0-3.17-1.42-3.17-3.17
			V224.9l6.34-5.03v32.47h12.68v-8.46c0-6.97,5.72-12.68,12.7-12.68c6.95,0,12.68,5.7,12.68,12.68v8.46h12.68V219.87z"/>
		<path class="st125" d="M612.2,225.89c-1.06,1.36-3.3,1.55-4.59,0.39l-38.2-30.14l-38.22,30.14c-1.29,1.16-3.58,1.01-4.59-0.39
			c-0.89-1.23-0.67-3.58,0.69-4.59l14.63-11.56v-17.64c0-1.75,1.42-3.17,3.17-3.17h8.45c1.75,0,3.17,1.42,3.17,3.17v5.97l10.74-8.48
			c0.65-0.47,1.3-0.67,1.96-0.65c0.63,0,1.3,0.24,1.94,0.65l40.16,31.71C612.55,222.33,613.26,224.53,612.2,225.89z"/>
	</g>
	<g transform="translate(0,-952.36218)">
		<g>
			<path class="st135" d="M611.51,1173.67l-40.16-31.71c-0.63-0.41-1.31-0.65-1.94-0.65c-0.65-0.02-1.3,0.19-1.96,0.65l-10.74,8.48
				v-5.97c0-1.75-1.42-3.17-3.17-3.17h-8.45c-1.75,0-3.17,1.42-3.17,3.17v17.64l-14.63,11.56c-1.36,1.01-1.58,3.36-0.69,4.59
				c1.01,1.4,3.3,1.55,4.59,0.39l38.22-30.14l38.2,30.14c1.29,1.16,3.52,0.97,4.59-0.39
				C613.26,1176.89,612.55,1174.69,611.51,1173.67z M550.38,1155.43l-2.11,1.68v-9.47h2.11V1155.43z M594.77,1172.23v32.47h-12.68
				v-8.46c0-6.97-5.72-12.68-12.68-12.68c-6.97,0-12.7,5.7-12.7,12.68v8.46h-12.68v-32.47l-6.34,5.03v30.61
				c0,1.75,1.42,3.17,3.17,3.17h19.02c1.75,0,3.17-1.42,3.17-3.17v-11.63c0-3.56,2.78-6.34,6.36-6.34c3.56,0,6.34,2.78,6.34,6.34
				v11.63c0,1.75,1.42,3.17,3.17,3.17h19.02c1.75,0,3.17-1.42,3.17-3.17v-30.61L594.77,1172.23z"/>
		</g>
	</g>
	<g>
		<path class="st125" d="M1008.87,419.81c0,34.53-26.49,62.86-60.25,65.79c-1.9,0.15-3.84,0.24-5.78,0.24
			c-4.7,0-9.27-0.48-13.68-1.44c-25.09-5.28-44.93-24.81-50.65-49.74c-1.1-4.77-1.68-9.75-1.68-14.86c0-1.55,0.06-3.08,0.17-4.59
			c2.35-34.32,30.93-61.43,65.84-61.43C979.3,353.79,1008.87,383.34,1008.87,419.81z"/>
	</g>
	<g>
		<path class="st145" d="M744.78,223.8c0,34.39-26.32,62.68-59.92,65.75c-2.01,0.19-4.05,0.28-6.11,0.28
			c-1.21,0-2.42-0.04-3.62-0.11c-3.32-0.17-6.54-0.58-9.71-1.23c-30.07-6.17-52.7-32.79-52.7-64.69c0-36.46,29.57-66.01,66.03-66.01
			C715.21,157.79,744.78,187.34,744.78,223.8z"/>
	</g>
	<g transform="translate(0,-952.36218)">
		<g>
			<path class="st135" d="M704.12,1172.23v32.47h-12.68v-8.46c0-6.97-5.72-12.68-12.7-12.68c-6.97,0-12.68,5.7-12.68,12.68v8.46
				H653.4v-32.47l-6.34,5.03v30.61c0,1.75,1.42,3.17,3.17,3.17h19.02c1.75,0,3.17-1.42,3.17-3.17v-11.63c0-3.56,2.78-6.34,6.34-6.34
				c3.58,0,6.34,2.78,6.34,6.34v11.63c0,1.75,1.44,3.17,3.19,3.17h19.02c1.75,0,3.17-1.42,3.17-3.17v-30.61L704.12,1172.23z
				 M720.86,1173.67l-40.16-31.71c-0.63-0.41-1.3-0.65-1.96-0.65c-0.07,0-0.15,0-0.22,0.02c-0.56,0.02-1.14,0.22-1.72,0.63
				l-10.74,8.48v-5.97c0-1.75-1.42-3.17-3.17-3.17h-8.44c-1.75,0-3.19,1.42-3.19,3.17v17.64l-14.62,11.56
				c-0.82,0.6-1.23,1.68-1.23,2.72c0,0.69,0.19,1.38,0.54,1.86c1.01,1.4,3.3,1.55,4.59,0.39l38.2-30.14l16.55,13.07l21.66,17.08
				c1.29,1.16,3.52,0.97,4.59-0.39C722.61,1176.89,721.89,1174.69,720.86,1173.67z M659.73,1155.43l-2.11,1.68v-9.47h2.11V1155.43z"
				/>
		</g>
	</g>
	<g>
		<circle class="st146" cx="794.29" cy="223.81" r="66.02"/>
	</g>
	<g transform="translate(0,-952.36218)">
		<g>
			<path class="st147" d="M819.67,1172.23v32.47h-12.7v-8.46c0-6.97-5.7-12.68-12.68-12.68c-6.97,0-12.68,5.7-12.68,12.68v8.46
				h-12.68v-32.47l-6.34,5.03v30.61c0,1.75,1.42,3.17,3.17,3.17h19.02c1.75,0,3.17-1.42,3.17-3.17v-11.63
				c0-3.56,2.78-6.34,6.34-6.34c3.56,0,6.34,2.78,6.34,6.34v11.63c0,1.75,1.42,3.17,3.17,3.17h19.03c1.75,0,3.17-1.42,3.17-3.17
				v-30.61L819.67,1172.23z M836.41,1173.67l-40.16-31.71c-0.65-0.41-1.3-0.65-1.96-0.65c-0.65-0.02-1.29,0.19-1.94,0.65
				l-10.74,8.48v-5.97c0-1.75-1.42-3.17-3.17-3.17h-8.46c-1.75,0-3.17,1.42-3.17,3.17v17.64l-14.62,11.56
				c-1.38,1.01-1.6,3.36-0.71,4.59c1.03,1.4,3.3,1.55,4.61,0.39l38.2-30.14l38.22,30.14c1.29,1.16,3.52,0.97,4.59-0.39
				C838.16,1176.89,837.43,1174.69,836.41,1173.67z M775.28,1155.43l-2.12,1.68v-9.47h2.12V1155.43z"/>
		</g>
	</g>
	<g>
		<path class="st146" d="M740.64,735.5c0,33.03-24.25,60.38-55.93,65.25c-3.28,0.5-6.66,0.76-10.09,0.76c-3.19,0-6.3-0.22-9.36-0.67
			c-32.03-4.53-56.67-32.06-56.67-65.34c0-33.31,24.68-60.87,56.75-65.38c3.04-0.43,6.13-0.65,9.28-0.65
			c3.45,0,6.86,0.26,10.16,0.78C716.43,675.13,740.64,702.48,740.64,735.5z"/>
	</g>
	<g>
		<path class="st135" d="M966.94,419.3c-2.2,0-4.27,0.48-6.13,1.36c-2.26,1.04-4.21,2.65-5.67,4.64c-1.14,1.57-1.99,3.37-2.42,5.31
			c-0.26,1.06-0.39,2.16-0.39,3.3c0,1.38,0.19,2.72,0.56,3.99c1.73,6.13,7.38,10.64,14.06,10.64c8.07,0,14.62-6.56,14.62-14.63
			C981.56,425.87,975.01,419.3,966.94,419.3z M966.94,441.26c-4.05,0-7.33-3.3-7.33-7.34c0-4.03,3.28-7.33,7.33-7.33
			s7.33,3.3,7.33,7.33C974.27,437.96,970.99,441.26,966.94,441.26z"/>
	</g>
	<g>
		<path class="st135" d="M932.99,430.62c-0.45-1.94-1.3-3.75-2.44-5.31c-1.45-1.99-3.41-3.6-5.67-4.64
			c-1.86-0.88-3.93-1.36-6.13-1.36c-8.07,0-14.63,6.56-14.63,14.62c0,8.07,6.56,14.63,14.63,14.63c6.67,0,12.32-4.51,14.06-10.64
			c0.37-1.27,0.56-2.61,0.56-3.99C933.37,432.78,933.24,431.68,932.99,430.62z M918.75,441.26c-4.05,0-7.35-3.3-7.35-7.34
			c0-4.03,3.3-7.33,7.35-7.33c4.05,0,7.33,3.3,7.33,7.33C926.08,437.96,922.8,441.26,918.75,441.26z"/>
	</g>
	<g>
		<path class="st135" d="M943.13,383.86c-8.07,0-14.62,6.56-14.62,14.62c0,4.05,1.66,7.72,4.33,10.37c1.73,1.72,3.9,3.02,6.3,3.69
			c1.27,0.37,2.61,0.56,3.99,0.56c1.19,0,2.37-0.15,3.49-0.43c2.44-0.6,4.66-1.81,6.45-3.49c2.87-2.67,4.68-6.49,4.68-10.7
			C957.75,390.43,951.19,383.86,943.13,383.86z M935.81,398.48c0-4.05,3.28-7.33,7.33-7.33c4.05,0,7.33,3.28,7.33,7.33
			c0,4.05-3.28,7.33-7.33,7.33C939.09,405.81,935.81,402.53,935.81,398.48z"/>
	</g>
	<g>
		<rect x="929.7" y="430.61" class="st135" width="26.29" height="7.29"/>
	</g>
	<g>
		
			<rect x="950.27" y="406.49" transform="matrix(0.8295 -0.5586 0.5586 0.8295 -70.2204 603.9469)" class="st135" width="7.29" height="20.94"/>
	</g>
	<g>
		
			<rect x="921.24" y="413.21" transform="matrix(0.5586 -0.8294 0.8294 0.5586 65.5632 956.9073)" class="st135" width="21.21" height="7.29"/>
	</g>
	<g>
		<path class="st145" d="M1008.87,605.5c0,36.46-29.57,66.03-66.03,66.03c-34.23,0-62.38-26.06-65.7-59.43
			c-0.21-2.16-0.32-4.36-0.32-6.6c0-4.4,0.43-8.69,1.25-12.84c5.11-25.95,25.43-46.44,51.3-51.77c4.34-0.93,8.84-1.4,13.46-1.4
			c2.01,0,4.01,0.09,5.98,0.26C982.49,542.77,1008.87,571.05,1008.87,605.5z"/>
	</g>
	<g>
		<g>
			<path class="st149" d="M973.71,613.51c-3.16,0-6.36-1.16-9.29-2.22c-1.92-0.7-3.73-1.35-5.35-1.64c-1.32-0.23-2.2-1.49-1.97-2.81
				c0.23-1.32,1.5-2.2,2.82-1.97c2.03,0.36,4.13,1.12,6.16,1.85c3.56,1.29,7.23,2.63,9.91,1.52c1.71-0.7,3.24-2.91,3.65-5.24
				c0.18-1.04,0.28-2.98-1.13-4.26c-1.14-1.04-2.94-1.23-5.02-1.45c-2.52-0.27-5.38-0.57-7.88-2.49l-0.3-0.23
				c-1.78-1.35-3.12-2.6-4.22-6.51c-0.36-1.29,0.39-2.63,1.68-3c1.29-0.37,2.63,0.39,3,1.68c0.74,2.64,1.32,3.08,2.48,3.95
				l0.33,0.25c1.41,1.09,3.37,1.29,5.43,1.51c2.56,0.27,5.47,0.58,7.79,2.68c2.29,2.08,3.25,5.25,2.65,8.7
				c-0.7,3.98-3.34,7.56-6.58,8.9C976.48,613.29,975.1,613.51,973.71,613.51z"/>
		</g>
		<g>
			<path class="st149" d="M957.25,646.94c-0.39,0-0.75-0.03-1.08-0.08c-3.63-0.5-7.18-3.56-9.5-8.19c-4.26-8.52-1.84-16.22,0.1-22.4
				c1.32-4.2,2.46-7.82,1.1-10.38c-0.63-1.19-0.17-2.66,1.02-3.28c1.19-0.62,2.66-0.17,3.28,1.02c2.3,4.35,0.81,9.09-0.77,14.11
				c-1.85,5.9-3.77,12.01-0.39,18.77c1.55,3.1,3.83,5.28,5.81,5.55c1.15,0.15,2.24-0.34,3.32-1.54c1.07-1.18,1.54-2.45,1.44-3.87
				c-0.23-3.49-3.73-7.16-5.05-8.28c-1.03-0.87-1.15-2.4-0.29-3.42c0.87-1.03,2.4-1.16,3.42-0.29c0.26,0.22,6.35,5.43,6.77,11.67
				c0.19,2.77-0.72,5.28-2.69,7.46C961.48,646.28,959.1,646.94,957.25,646.94z"/>
		</g>
		<g>
			<path class="st149" d="M962.07,578.72c-0.08,0-0.16,0-0.24-0.01c-1.34-0.13-2.31-1.32-2.18-2.66c0.2-1.98-1.92-4.49-4.35-5.15
				c-1.88-0.52-5.16,1.08-6.45,1.94c-1.12,0.74-2.63,0.44-3.37-0.69c-0.74-1.12-0.43-2.63,0.69-3.37c0.59-0.39,5.93-3.8,10.41-2.58
				c4.8,1.31,8.35,5.94,7.91,10.33C964.36,577.79,963.3,578.72,962.07,578.72z"/>
		</g>
		<g>
			<path class="st149" d="M973.98,597.43c-0.07,0-0.14,0-0.21-0.01c-1.34-0.11-2.33-1.29-2.21-2.63
				c0.97-11.29-1.38-13.49-7.01-14.15c-1.56-0.19-3.85-0.04-5.71,3.36c-0.64,1.18-2.12,1.61-3.3,0.96c-1.18-0.64-1.61-2.12-0.96-3.3
				c2.35-4.3,6.1-6.37,10.54-5.85c10.64,1.25,12.2,8.66,11.28,19.4C976.29,596.48,975.23,597.43,973.98,597.43z"/>
		</g>
		<g>
			<path class="st149" d="M971.37,604.85c-0.72,0-1.43-0.32-1.91-0.93c-1.97-2.51-6.54-2.12-10.21-1.79
				c-1.82,0.16-3.39,0.29-4.74,0.14c-3.76-0.45-6.51-2.72-7.55-6.23c-1.14-3.88,0.08-8.68,2.79-10.93c1.03-0.86,2.57-0.71,3.42,0.32
				c0.86,1.03,0.71,2.57-0.32,3.42c-1.1,0.91-1.88,3.65-1.24,5.82c0.49,1.65,1.62,2.56,3.47,2.78c0.85,0.1,2.25-0.02,3.73-0.15
				c4.58-0.4,10.86-0.95,14.46,3.63c0.83,1.06,0.65,2.58-0.41,3.41C972.43,604.68,971.9,604.85,971.37,604.85z"/>
		</g>
		<g>
			<path class="st149" d="M973.04,624.17c-0.42,0-0.85-0.02-1.31-0.07c-5.18-0.53-7.6-1.9-9.54-3c-1.4-0.8-2.33-1.32-4.21-1.41
				c-4.33-0.19-8.55,3.49-8.59,3.52c-1.01,0.88-2.54,0.79-3.43-0.21c-0.89-1-0.8-2.53,0.2-3.42c0.23-0.2,5.74-5.01,12.03-4.74
				c3.04,0.14,4.74,1.1,6.39,2.04c1.71,0.97,3.47,1.97,7.63,2.39c2.46,0.26,3.29-0.66,3.55-0.96c1.84-2.08,1.23-7.09,0.87-8.68
				c-0.3-1.31,0.52-2.61,1.83-2.91c1.32-0.3,2.61,0.51,2.91,1.82c0.2,0.87,1.86,8.66-1.95,12.98
				C978.32,622.78,976.35,624.17,973.04,624.17z"/>
		</g>
		<g>
			<path class="st149" d="M963.32,642.56c-0.99,0-1.92-0.61-2.28-1.59c-0.46-1.26,0.19-2.65,1.44-3.12c0.07-0.03,7.48-2.81,9.6-8.04
				c0.88-2.17,0.71-4.46-0.52-7c-0.58-1.21-0.07-2.66,1.13-3.24c1.21-0.58,2.66-0.07,3.24,1.14c1.83,3.8,2.05,7.49,0.64,10.96
				c-2.94,7.23-12.04,10.62-12.43,10.76C963.88,642.51,963.6,642.56,963.32,642.56z"/>
		</g>
		<g>
			<path class="st149" d="M956.52,638.5c-0.35,0-0.71-0.08-1.05-0.24c-9.8-4.71-10.74-13.17-10.77-13.53
				c-0.13-1.34,0.84-2.53,2.18-2.66c1.33-0.11,2.51,0.84,2.65,2.16c0.03,0.28,0.82,6.17,8.04,9.64c1.21,0.58,1.72,2.03,1.14,3.24
				C958.29,637.99,957.42,638.5,956.52,638.5z"/>
		</g>
		<g>
			<path class="st149" d="M913.32,613.51c-1.39,0-2.78-0.23-4.12-0.78c-3.24-1.34-5.89-4.91-6.58-8.9c-0.6-3.45,0.36-6.62,2.65-8.7
				c2.32-2.11,5.22-2.41,7.79-2.68c2.06-0.22,4.02-0.42,5.43-1.51l0.33-0.25c1.16-0.87,1.73-1.31,2.48-3.95
				c0.36-1.29,1.7-2.05,3-1.68c1.29,0.36,2.05,1.71,1.68,3c-1.1,3.91-2.44,5.17-4.22,6.51l-0.3,0.23c-2.5,1.92-5.36,2.22-7.88,2.49
				c-2.09,0.22-3.89,0.41-5.03,1.45c-1.41,1.28-1.32,3.22-1.13,4.26c0.41,2.33,1.94,4.54,3.65,5.24c2.68,1.11,6.35-0.23,9.91-1.52
				c2.03-0.74,4.13-1.5,6.16-1.85c1.32-0.23,2.58,0.65,2.82,1.97c0.23,1.32-0.65,2.58-1.97,2.81c-1.61,0.29-3.43,0.94-5.35,1.64
				C919.68,612.35,916.48,613.51,913.32,613.51z"/>
		</g>
		<g>
			<path class="st149" d="M929.78,646.94c-1.85,0-4.23-0.66-6.5-3.17c-1.97-2.18-2.88-4.69-2.69-7.46
				c0.42-6.24,6.51-11.45,6.77-11.67c1.02-0.87,2.56-0.74,3.42,0.29c0.87,1.03,0.74,2.56-0.29,3.42l0,0
				c-1.33,1.13-4.83,4.83-5.06,8.29c-0.09,1.42,0.38,2.68,1.45,3.86c1.08,1.2,2.17,1.71,3.32,1.54c1.98-0.27,4.26-2.45,5.81-5.55
				c3.38-6.76,1.46-12.87-0.39-18.78c-1.57-5.01-3.06-9.75-0.77-14.1c0.63-1.19,2.09-1.64,3.28-1.02c1.19,0.63,1.64,2.1,1.02,3.28
				c-1.35,2.57-0.21,6.19,1.1,10.39c1.94,6.19,4.36,13.89,0.1,22.4c-2.32,4.63-5.87,7.69-9.5,8.19
				C930.53,646.91,930.16,646.94,929.78,646.94z"/>
		</g>
		<g>
			<path class="st149" d="M924.96,578.72c-1.23,0-2.29-0.94-2.42-2.19c-0.44-4.39,3.11-9.02,7.91-10.33
				c4.49-1.23,9.81,2.18,10.41,2.58c1.12,0.74,1.43,2.25,0.69,3.37c-0.74,1.12-2.24,1.44-3.36,0.69c-1.3-0.85-4.59-2.44-6.45-1.94
				c-2.43,0.66-4.55,3.17-4.35,5.15c0.13,1.34-0.84,2.53-2.18,2.66C925.12,578.72,925.04,578.72,924.96,578.72z"/>
		</g>
		<g>
			<path class="st149" d="M913.05,597.43c-1.25,0-2.31-0.96-2.42-2.22c-0.93-10.74,0.64-18.14,11.28-19.4
				c4.44-0.52,8.19,1.55,10.54,5.85c0.65,1.18,0.21,2.66-0.96,3.3c-1.18,0.65-2.65,0.21-3.3-0.96c-1.86-3.4-4.15-3.56-5.71-3.36
				c-5.63,0.66-7.98,2.86-7.01,14.15c0.12,1.34-0.87,2.52-2.21,2.63C913.19,597.43,913.12,597.43,913.05,597.43z"/>
		</g>
		<g>
			<path class="st149" d="M915.65,604.85c-0.53,0-1.05-0.17-1.5-0.52c-1.06-0.83-1.24-2.36-0.41-3.41c3.6-4.58,9.87-4.02,14.46-3.63
				c1.48,0.13,2.89,0.25,3.74,0.15c1.85-0.22,2.98-1.13,3.47-2.78c0.64-2.17-0.14-4.91-1.24-5.82c-1.03-0.86-1.17-2.39-0.32-3.42
				c0.86-1.03,2.39-1.18,3.42-0.32c2.71,2.25,3.94,7.05,2.79,10.93c-1.03,3.51-3.79,5.78-7.55,6.23c-1.35,0.16-2.92,0.03-4.74-0.14
				c-3.67-0.32-8.24-0.72-10.21,1.79C917.09,604.53,916.37,604.85,915.65,604.85z"/>
		</g>
		<g>
			<path class="st149" d="M913.99,624.17c-3.31,0-5.28-1.4-6.39-2.65c-3.81-4.32-2.15-12.1-1.95-12.98c0.3-1.31,1.61-2.13,2.91-1.82
				c1.31,0.3,2.12,1.6,1.83,2.91c-0.36,1.59-0.98,6.6,0.86,8.68c0.26,0.3,1.08,1.21,3.55,0.96c4.17-0.43,5.93-1.43,7.63-2.39
				c1.64-0.93,3.34-1.9,6.39-2.04c6.35-0.23,11.81,4.54,12.04,4.74c1,0.89,1.09,2.43,0.2,3.43c-0.89,1-2.42,1.1-3.43,0.21l0,0
				c-0.04-0.04-4.28-3.71-8.59-3.52c-1.88,0.09-2.81,0.61-4.21,1.41c-1.94,1.1-4.36,2.47-9.54,3
				C914.84,624.15,914.4,624.17,913.99,624.17z"/>
		</g>
		<g>
			<path class="st149" d="M923.71,642.56c-0.28,0-0.56-0.05-0.83-0.15c-0.39-0.14-9.49-3.53-12.42-10.76
				c-1.41-3.46-1.19-7.15,0.64-10.96c0.58-1.21,2.04-1.72,3.24-1.13c1.21,0.58,1.72,2.03,1.13,3.24c-1.23,2.55-1.4,4.84-0.52,7.02
				c1.77,4.36,7.52,7.27,9.59,8.02c1.26,0.46,1.91,1.85,1.45,3.12C925.63,641.95,924.7,642.56,923.71,642.56z"/>
		</g>
		<g>
			<path class="st149" d="M930.51,638.5c-0.9,0-1.77-0.51-2.19-1.38c-0.58-1.21-0.07-2.66,1.14-3.24c7.25-3.48,8.01-9.4,8.04-9.65
				c0.15-1.32,1.34-2.3,2.67-2.15c1.33,0.14,2.29,1.31,2.16,2.64c-0.03,0.36-0.97,8.82-10.77,13.53
				C931.22,638.42,930.86,638.5,930.51,638.5z"/>
		</g>
	</g>
	<g>
		<path class="st147" d="M674.97,734.4c-2.59,0-4.68,2.11-4.68,4.7c0,1.79,1.01,3.36,2.5,4.14c0.65,0.35,1.4,0.54,2.18,0.54
			c0.78,0,1.53-0.19,2.18-0.54c1.49-0.78,2.5-2.35,2.5-4.14C679.64,736.5,677.56,734.4,674.97,734.4z M674.97,739.6
			c-0.28,0-0.52-0.22-0.52-0.5c0-0.3,0.24-0.52,0.52-0.52c0.28,0,0.52,0.22,0.52,0.52C675.49,739.37,675.24,739.6,674.97,739.6z"/>
	</g>
	<g>
		<polygon class="st147" points="679.99,753.09 669.93,753.09 674.97,735.74 		"/>
	</g>
	<g>
		<path class="st135" d="M695.81,721.87c-2.14-2.09-4.6-3.86-7.29-5.24c-4.16-2.14-8.87-3.36-13.89-3.36
			c-16.8,0-30.48,13.66-30.48,30.46c0,16.8,13.68,30.48,30.48,30.48c16.8,0,30.46-13.68,30.46-30.48
			C705.09,735.16,701.53,727.41,695.81,721.87z M674.63,766.93c-12.79,0-23.19-10.4-23.19-23.19c0-12.77,10.4-23.17,23.19-23.17
			c12.77,0,23.17,10.4,23.17,23.17C697.8,756.52,687.4,766.93,674.63,766.93z"/>
	</g>
	<g>
		<path class="st135" d="M692.16,725.38c-2.01,0-3.65-1.63-3.65-3.65V709.7c0-7.09-5.77-12.86-12.86-12.86
			c-3.64,0-7.13,1.57-9.58,4.31c-1.34,1.5-3.65,1.63-5.15,0.29c-1.5-1.34-1.63-3.65-0.29-5.15c3.83-4.28,9.3-6.74,15.01-6.74
			c11.11,0,20.15,9.04,20.15,20.15v12.04C695.81,723.75,694.17,725.38,692.16,725.38z"/>
	</g>
	<g>
		<path class="st135" d="M659.15,713.34c-2.01,0-3.65-1.63-3.65-3.65c0-1.64,0.2-3.26,0.59-4.84c0.49-1.95,2.46-3.15,4.42-2.66
			c1.95,0.49,3.14,2.46,2.66,4.42c-0.25,1-0.38,2.04-0.38,3.08C662.8,711.71,661.16,713.34,659.15,713.34z"/>
	</g>
	<g>
		<path class="st125" d="M1008.87,867.54c0,36.46-29.57,66.01-66.03,66.01c-35.33,0-64.17-27.72-65.92-62.62
			c-0.06-1.12-0.09-2.26-0.09-3.39c0-5.54,0.67-10.91,1.96-16.03c7.16-28.73,33.13-50,64.06-50
			C979.3,801.51,1008.87,831.07,1008.87,867.54z"/>
	</g>
	<g>
		<g>
			<path class="st135" d="M921.5,893.22c-1.24,0-2.49-0.47-3.44-1.42c-1.9-1.9-1.9-4.97,0-6.87l43.52-43.52c1.9-1.9,4.97-1.9,6.87,0
				s1.9,4.97,0,6.87l-43.52,43.52C923.99,892.74,922.74,893.22,921.5,893.22z"/>
		</g>
		<g>
			<path class="st135" d="M965.02,893.22c-1.24,0-2.49-0.47-3.44-1.42l-43.52-43.52c-1.9-1.9-1.9-4.97,0-6.87
				c1.9-1.9,4.97-1.9,6.87,0l43.52,43.52c1.9,1.9,1.9,4.97,0,6.87C967.51,892.74,966.26,893.22,965.02,893.22z"/>
		</g>
	</g>
	<g>
		<circle class="st146" cx="942.84" cy="960.38" r="66.02"/>
	</g>
	<g>
		<g>
			<path class="st135" d="M921.5,986.07c-1.24,0-2.49-0.47-3.44-1.42c-1.9-1.9-1.9-4.97,0-6.87l43.52-43.52c1.9-1.9,4.97-1.9,6.87,0
				s1.9,4.97,0,6.87l-43.52,43.52C923.99,985.59,922.74,986.07,921.5,986.07z"/>
		</g>
		<g>
			<path class="st135" d="M965.02,986.07c-1.24,0-2.49-0.47-3.44-1.42l-43.52-43.52c-1.9-1.9-1.9-4.97,0-6.87
				c1.9-1.9,4.97-1.9,6.87,0l43.52,43.52c1.9,1.9,1.9,4.97,0,6.87C967.51,985.59,966.26,986.07,965.02,986.07z"/>
		</g>
	</g>
	<g>
		<path class="st145" d="M1008.87,1065.61c0,34.58-26.58,62.94-60.42,65.77c-1.85,0.17-3.73,0.24-5.61,0.24
			c-4.74,0-9.38-0.5-13.83-1.45c-29.83-6.36-52.18-32.83-52.18-64.56c0-36.46,29.55-66.03,66.01-66.03
			C979.3,999.58,1008.87,1029.15,1008.87,1065.61z"/>
	</g>
	<g>
		<path class="st149" d="M934.31,1101.88l-21.53-21.53c-1.9-1.9-1.9-4.97,0-6.87c1.9-1.9,4.98-1.9,6.87,0l13.87,13.87l41.54-51.61
			c1.68-2.09,4.74-2.43,6.83-0.74c2.09,1.68,2.42,4.74,0.74,6.83L934.31,1101.88z"/>
	</g>
	<g>
		<g>
			<path class="st152" d="M712.66,1180.17h-69.89c-3.45,0-6.26,2.82-6.26,6.26v51.32c0,3.45,2.82,6.26,6.26,6.26h69.89
				c3.45,0,6.26-2.82,6.26-6.26v-51.32C718.92,1182.99,716.11,1180.17,712.66,1180.17z M712.85,1237.76c0,0.09-0.09,0.19-0.19,0.19
				h-69.89c-0.09,0-0.19-0.09-0.19-0.19v-51.32c0-0.09,0.09-0.19,0.19-0.19h69.89c0.09,0,0.19,0.09,0.19,0.19V1237.76z"/>
		</g>
		<g>
			<path class="st152" d="M714.86,1201.72h-74.28c-1.68,0-3.04-1.36-3.04-3.04c0-1.68,1.36-3.04,3.04-3.04h74.28
				c1.68,0,3.04,1.36,3.04,3.04C717.89,1200.36,716.53,1201.72,714.86,1201.72z"/>
		</g>
		<g>
			<path class="st152" d="M707.63,1194.5H670.5c-1.68,0-3.04-1.36-3.04-3.04c0-1.68,1.36-3.04,3.04-3.04h37.14
				c1.68,0,3.04,1.36,3.04,3.04C710.67,1193.14,709.31,1194.5,707.63,1194.5z"/>
		</g>
		<g>
			<path class="st152" d="M645.74,1193.9c-0.32,0-0.63-0.07-0.92-0.19c-0.29-0.12-0.56-0.29-0.8-0.51c-0.22-0.24-0.39-0.51-0.51-0.8
				c-0.12-0.29-0.19-0.61-0.19-0.92c0-0.32,0.07-0.63,0.19-0.92c0.12-0.32,0.29-0.58,0.51-0.8c0.24-0.22,0.49-0.39,0.8-0.53
				c0.9-0.37,1.97-0.15,2.65,0.53c0.22,0.24,0.39,0.49,0.51,0.8c0.12,0.29,0.19,0.61,0.19,0.92c0,0.32-0.07,0.63-0.19,0.92
				c-0.12,0.29-0.29,0.56-0.51,0.8c-0.24,0.22-0.51,0.39-0.8,0.51C646.37,1193.82,646.06,1193.9,645.74,1193.9z"/>
		</g>
		<g>
			<path class="st152" d="M653.98,1193.9c-0.32,0-0.63-0.07-0.92-0.19c-0.29-0.12-0.56-0.29-0.78-0.51
				c-0.24-0.24-0.41-0.51-0.54-0.8c-0.12-0.29-0.19-0.61-0.19-0.92c0-0.32,0.07-0.63,0.19-0.92c0.12-0.32,0.32-0.56,0.54-0.8
				c0.1-0.1,0.24-0.22,0.36-0.29c0.12-0.1,0.27-0.17,0.41-0.24c0.15-0.05,0.32-0.1,0.46-0.12c0.49-0.1,0.95-0.05,1.41,0.12
				c0.29,0.14,0.56,0.32,0.78,0.53c0.24,0.24,0.41,0.49,0.54,0.8c0.12,0.29,0.19,0.61,0.19,0.92c0,0.32-0.07,0.63-0.19,0.92
				c-0.12,0.29-0.29,0.56-0.54,0.8C655.24,1193.63,654.63,1193.9,653.98,1193.9z"/>
		</g>
		<g>
			<path class="st152" d="M662.24,1193.9c-0.66,0-1.26-0.27-1.73-0.7c-0.22-0.24-0.39-0.51-0.51-0.8c-0.12-0.29-0.19-0.61-0.19-0.92
				c0-0.32,0.07-0.63,0.19-0.92c0.12-0.32,0.29-0.56,0.51-0.8c0.24-0.22,0.51-0.39,0.8-0.53c0.61-0.24,1.26-0.24,1.85,0
				c0.32,0.14,0.58,0.32,0.8,0.53c0.22,0.24,0.39,0.49,0.51,0.8c0.12,0.29,0.19,0.61,0.19,0.92c0,0.32-0.05,0.63-0.17,0.92
				c-0.12,0.29-0.32,0.56-0.53,0.8C663.5,1193.63,662.9,1193.9,662.24,1193.9z"/>
		</g>
	</g>
</g>
</svg>
