<?xml version="1.0" encoding="utf-8"?>
<!-- Generator: Adobe Illustrator 23.0.1, SVG Export Plug-In . SVG Version: 6.00 Build 0)  -->
<svg version="1.1" id="Capa_1" xmlns="http://www.w3.org/2000/svg" xmlns:xlink="http://www.w3.org/1999/xlink" x="0px" y="0px"
	 viewBox="0 0 1018.74 1352.34" style="enable-background:new 0 0 1018.74 1352.34;" xml:space="preserve">
<style type="text/css">
	.st0{opacity:0.8;}
	.st1{fill:#DDE4F4;}
	.st2{fill:#DFE6F6;}
	.st3{fill:#F2F5FA;}
	.st4{fill:#96A7C5;}
	.st5{fill:#889BB5;}
	.st6{fill:#748AA5;}
	.st7{fill:#86CFCF;}
	.st8{fill:#44D8A7;stroke:#40E4B0;stroke-miterlimit:10;}
	.st9{opacity:0.8;fill:none;stroke:#B0BFD6;stroke-width:8;stroke-linejoin:round;stroke-miterlimit:10;}
	.st10{opacity:0.8;fill:#C6D1E5;stroke:#B0BFD6;stroke-width:8;stroke-miterlimit:10;}
	.st11{fill:#C6D1E5;}
	.st12{fill:#3EC19B;}
	.st13{opacity:0.3;}
	.st14{fill:#FFFFFF;}
	.st15{fill:#82E0C9;}
	.st16{fill:#003EB7;}
	.st17{fill:#86B1FF;}
	.st18{fill:#3BA6B2;}
	.st19{fill:#2EC3C5;}
	.st20{fill:none;}
	.st21{fill:#C0F2E4;}
	.st22{fill:#A3EFDB;}
	.st23{fill:url(#SVGID_1_);}
	.st24{fill:#B0BFD6;}
	.st25{fill:none;stroke:#DFE6F6;stroke-width:0.2;stroke-miterlimit:10;}
	.st26{fill:#ECF0F9;}
	.st27{fill:url(#SVGID_2_);}
	.st28{fill:url(#SVGID_3_);}
	.st29{fill:#8EA1BC;}
	.st30{fill:#42B88E;}
	.st31{fill:url(#SVGID_4_);}
	.st32{fill:#41D6A5;}
	.st33{fill:#B3EFDB;}
	.st34{fill:#8DE6C9;}
	.st35{fill:url(#SVGID_5_);}
	.st36{fill:url(#SVGID_6_);}
	.st37{clip-path:url(#SVGID_8_);fill:#F2F5FA;}
	.st38{clip-path:url(#SVGID_8_);}
	.st39{opacity:0.5;stroke:#96A7C5;stroke-width:0.25;stroke-miterlimit:10;}
	.st40{fill:none;stroke:#B7B7B7;stroke-miterlimit:10;}
	.st41{fill:#7ACEB2;}
	.st42{fill:#30B58C;}
	.st43{fill:#6AAA95;}
	.st44{fill:#67C1A5;}
	.st45{fill:none;stroke:#3EC19B;stroke-miterlimit:10;}
	.st46{opacity:0.15;fill:none;stroke:#000000;stroke-width:0.5;stroke-miterlimit:10;}
	.st47{clip-path:url(#SVGID_12_);fill:#F2F5FA;}
	.st48{clip-path:url(#SVGID_12_);}
	.st49{clip-path:url(#SVGID_18_);fill:#F2F5FA;}
	.st50{clip-path:url(#SVGID_18_);}
	.st51{clip-path:url(#SVGID_24_);fill:#F2F5FA;}
	.st52{clip-path:url(#SVGID_24_);}
	.st53{fill:#AABBE9;}
	.st54{fill:#3D3FD0;}
	.st55{fill:#2C299E;}
	.st56{fill:#2E31B6;}
	.st57{fill:#333858;}
	.st58{fill:#2A81CE;}
	.st59{fill:#357BED;}
	.st60{fill:#91D9CC;}
	.st61{fill:#8CC5DE;}
	.st62{fill:#4F97E3;}
	.st63{fill:#1E6DC2;}
	.st64{opacity:0.3;fill:#FFFFFF;stroke:#28B890;stroke-width:9;stroke-linecap:round;stroke-miterlimit:10;}
	.st65{opacity:0.3;fill:#FFFFFF;stroke:#000000;stroke-width:5;stroke-linecap:round;stroke-miterlimit:10;}
	.st66{opacity:0.3;fill:#FFFFFF;}
	.st67{fill:#FFFFFF;stroke:#FFFFFF;stroke-width:5;stroke-linecap:round;stroke-miterlimit:10;}
	.st68{clip-path:url(#SVGID_28_);}
	.st69{clip-path:url(#SVGID_30_);}
	.st70{clip-path:url(#SVGID_32_);}
	.st71{clip-path:url(#SVGID_34_);}
	.st72{clip-path:url(#SVGID_36_);}
	.st73{clip-path:url(#SVGID_38_);}
	.st74{fill:url(#SVGID_39_);}
	.st75{clip-path:url(#SVGID_41_);}
	.st76{fill:url(#SVGID_42_);}
	.st77{fill:none;stroke:#B0BFD6;stroke-width:2;stroke-linecap:round;stroke-miterlimit:10;}
	.st78{fill:none;stroke:#B0BFD6;stroke-width:2;stroke-linecap:round;stroke-miterlimit:10;stroke-dasharray:0.4894,4.8937;}
	.st79{fill:none;stroke:#B0BFD6;stroke-width:2;stroke-linecap:round;stroke-miterlimit:10;stroke-dasharray:0.5413,5.4134;}
	.st80{fill:none;stroke:#B0BFD6;stroke-width:2;stroke-linecap:round;stroke-miterlimit:10;stroke-dasharray:0.5168,5.1678;}
	.st81{fill:none;stroke:#B0BFD6;stroke-width:2;stroke-linecap:round;stroke-miterlimit:10;stroke-dasharray:0.5018,5.0181;}
	.st82{fill:none;stroke:#B0BFD6;stroke-width:2;stroke-linecap:round;stroke-miterlimit:10;stroke-dasharray:0.5161,5.1609;}
	.st83{clip-path:url(#SVGID_44_);}
	.st84{fill:none;stroke:#B0BFD6;stroke-width:2;stroke-linecap:round;stroke-miterlimit:10;stroke-dasharray:0.5206,5.2063;}
	.st85{fill:none;stroke:#B0BFD6;stroke-width:2;stroke-linecap:round;stroke-miterlimit:10;stroke-dasharray:0.5109,5.1089;}
	.st86{fill:none;stroke:#B0BFD6;stroke-width:2;stroke-linecap:round;stroke-miterlimit:10;stroke-dasharray:0.5088,5.0876;}
	.st87{fill:none;stroke:#B0BFD6;stroke-width:2;stroke-linecap:round;stroke-miterlimit:10;stroke-dasharray:0.5121,5.1213;}
	.st88{fill:none;stroke:#B0BFD6;stroke-width:2;stroke-linecap:round;stroke-miterlimit:10;stroke-dasharray:0.4874,4.8744;}
	.st89{fill:url(#SVGID_45_);}
	.st90{clip-path:url(#SVGID_47_);}
	.st91{fill:url(#SVGID_48_);}
	.st92{clip-path:url(#SVGID_50_);}
	.st93{fill:url(#SVGID_51_);}
	.st94{clip-path:url(#SVGID_53_);}
	.st95{fill:url(#SVGID_54_);}
	.st96{fill:none;stroke:#BCD2FA;stroke-width:4.5;stroke-opacity:0.3;}
	.st97{fill-rule:evenodd;clip-rule:evenodd;fill:#001C9D;}
	.st98{fill:none;stroke:#246BEE;stroke-width:1.916;stroke-linecap:round;stroke-linejoin:round;}
	.st99{fill-rule:evenodd;clip-rule:evenodd;fill:#3C6DD1;}
	.st100{fill:none;stroke:#001C9D;stroke-width:1.1496;stroke-linecap:round;stroke-linejoin:round;}
	.st101{fill-rule:evenodd;clip-rule:evenodd;fill:#246BEE;}
	.st102{opacity:0.95;}
	.st103{fill-rule:evenodd;clip-rule:evenodd;fill:#00CD90;}
	.st104{fill-rule:evenodd;clip-rule:evenodd;fill:#BCD2FA;}
	.st105{opacity:0.95;fill-rule:evenodd;clip-rule:evenodd;fill:#001C9D;enable-background:new    ;}
	.st106{opacity:0.95;fill-rule:evenodd;clip-rule:evenodd;fill:#246BEE;enable-background:new    ;}
	.st107{fill:none;stroke:#001C9D;stroke-width:1.916;stroke-linecap:round;stroke-linejoin:round;}
	.st108{fill:none;stroke:#001C9D;stroke-width:2.1479;stroke-linecap:round;stroke-linejoin:round;}
	.st109{fill:none;stroke:#FFFFFF;stroke-width:1.1496;stroke-linecap:round;stroke-linejoin:round;}
	.st110{fill:none;stroke:#001C9D;stroke-width:1.7032;stroke-linecap:round;stroke-linejoin:round;}
	.st111{fill:none;stroke:#286CEE;stroke-width:1.7032;stroke-linecap:round;stroke-linejoin:round;}
	.st112{fill:#2165E2;stroke:#226AEC;stroke-width:0.5;}
	.st113{fill:none;stroke:#001C9D;stroke-width:2.0625;stroke-linecap:round;stroke-linejoin:round;}
	.st114{fill:none;stroke:#B0BFD6;stroke-width:3;stroke-miterlimit:10;}
	.st115{fill:none;stroke:#C6D1E5;stroke-width:2;stroke-linecap:round;stroke-miterlimit:10;}
	.st116{fill:none;stroke:#C6D1E5;stroke-width:3;stroke-miterlimit:10;}
	.st117{fill:none;stroke:#C6D1E5;stroke-width:3;stroke-linecap:round;stroke-miterlimit:10;}
	.st118{fill:none;stroke:#C6D1E5;stroke-width:4;stroke-linecap:round;stroke-miterlimit:10;}
	.st119{opacity:0.8;fill:none;stroke:#B0BFD6;stroke-width:6;stroke-linejoin:round;stroke-miterlimit:10;}
	.st120{opacity:0.8;fill:#C6D1E5;stroke:#B0BFD6;stroke-width:6;stroke-miterlimit:10;}
	.st121{fill:#80CFC2;}
	.st122{fill:#25A1E9;}
	.st123{fill:#486E8D;}
	.st124{fill:#29526E;}
	.st125{fill:#1D6DC0;}
	.st126{clip-path:url(#SVGID_56_);fill:#EFF3F8;}
	.st127{clip-path:url(#SVGID_56_);}
	.st128{fill:#EFF3F8;}
	.st129{opacity:0.5;stroke:#95A4C4;stroke-width:0.25;stroke-miterlimit:10;}
	.st130{fill:#95A4C4;}
	.st131{fill:#8599B3;}
	.st132{fill:#7588A4;}
	.st133{opacity:0.8;fill:none;stroke:#B5B5B5;stroke-miterlimit:10;}
	.st134{fill:#6CE8B9;stroke:#40E4B0;stroke-miterlimit:10;}
	.st135{fill:#5095E1;}
	.st136{fill:#40BF99;}
	.st137{fill:#6CE8B9;}
	.st138{fill:#367BEB;}
	.st139{fill:#8AE5C1;}
	.st140{fill:none;stroke:#40BF99;stroke-miterlimit:10;}
	.st141{fill:#41D6A5;stroke:#40E4B0;stroke-miterlimit:10;}
	.st142{clip-path:url(#SVGID_58_);fill:#EFF3F8;}
	.st143{clip-path:url(#SVGID_58_);}
	.st144{fill:#F5F5F5;}
	.st145{fill:#C0D9F5;}
	.st146{fill:#96C0EE;}
	.st147{fill:#5096E2;}
	.st148{fill:none;stroke:#67B5F4;stroke-width:2;stroke-linecap:round;stroke-miterlimit:10;}
	.st149{fill:#67B5F4;}
	.st150{fill:none;stroke:#C4CFE3;stroke-width:3;stroke-miterlimit:10;}
	.st151{fill:none;stroke:#5095E1;stroke-width:3;stroke-miterlimit:10;}
	.st152{fill:#42B78D;}
	.st153{fill:#3B536D;}
	.st154{fill:#3B536D;stroke:#5095E1;stroke-width:3;stroke-miterlimit:10;}
	.st155{opacity:0.8;fill:none;stroke:#DDE4F4;stroke-width:8;stroke-linejoin:round;stroke-miterlimit:10;}
	.st156{opacity:0.8;fill:#C4CFE3;stroke:#DDE4F4;stroke-width:8;stroke-miterlimit:10;}
	.st157{fill:none;stroke:#5095E1;stroke-width:3;stroke-linecap:round;stroke-miterlimit:10;}
	.st158{fill:none;stroke:#5095E1;stroke-width:4;stroke-linecap:round;stroke-miterlimit:10;}
	.st159{fill:none;stroke:#67B5F4;stroke-width:4;stroke-linecap:round;stroke-miterlimit:10;}
	.st160{fill:none;stroke:#42B78D;stroke-width:2.5;stroke-linecap:round;stroke-miterlimit:10;}
	.st161{fill:none;stroke:#42B78D;stroke-width:2;stroke-linecap:round;stroke-miterlimit:10;}
	.st162{fill:#41D4A3;}
	.st163{clip-path:url(#SVGID_60_);}
	.st164{fill:#B1EDD9;}
	.st165{fill:#8BE4C7;}
	.st166{fill:#D2F3E8;}
	.st167{fill:#41AB84;}
	.st168{clip-path:url(#SVGID_62_);}
	.st169{clip-path:url(#SVGID_64_);}
	.st170{clip-path:url(#SVGID_66_);}
	.st171{clip-path:url(#SVGID_68_);}
	.st172{fill:none;stroke:#AEBDD4;stroke-width:2;stroke-linecap:round;stroke-miterlimit:10;}
	.st173{fill:none;stroke:#AEBDD4;stroke-width:2;stroke-linecap:round;stroke-miterlimit:10;stroke-dasharray:0.4931,4.9315;}
	.st174{fill:none;stroke:#AEBDD4;stroke-width:2;stroke-linecap:round;stroke-miterlimit:10;stroke-dasharray:0.5027,5.0273;}
	.st175{fill:none;stroke:#AEBDD4;stroke-width:2;stroke-linecap:round;stroke-miterlimit:10;stroke-dasharray:0.5089,5.0895;}
	.st176{fill:none;stroke:#AEBDD4;stroke-width:2;stroke-linecap:round;stroke-miterlimit:10;stroke-dasharray:0.4963,4.9632;}
	.st177{fill:none;stroke:#AEBDD4;stroke-width:2;stroke-linecap:round;stroke-miterlimit:10;stroke-dasharray:0.499,4.9898;}
	.st178{clip-path:url(#SVGID_70_);}
	.st179{fill:#E4F7F1;}
</style>
<g class="st0">
	<path class="st1" d="M797.04,1055.73l1.54-117.88l-144.38,0.64c0.85-5.35,1.27-10.88,1.27-16.46c0-5.11-0.36-10.12-1.06-15.04
		l159.91-0.72c4.2-0.03,8.25,1.63,11.24,4.62c2.96,2.96,4.77,7.04,4.62,11.21l-1.63,135.16c-6.74-1.33-13.68-2.02-20.81-2.02
		C804.11,1055.21,800.55,1055.39,797.04,1055.73z"/>
</g>
<g>
	<path class="st32" d="M919.31,1155.17c0,3.08-0.12,6.1-0.39,9.12c-4.62,54.83-50.6,97.88-106.61,97.88c-59.09,0-107-47.91-107-107
		c0-59.09,47.91-106.97,107-106.97c51.42,0,94.35,36.22,104.65,84.56C918.5,1139.97,919.31,1147.49,919.31,1155.17z"/>
</g>
<g class="st0">
	<path class="st1" d="M830.25,555.23c-3.2-0.27-6.43-0.42-9.7-0.42c-7.49,0-14.77,0.76-21.81,2.27l-0.36-91.54
		c7.16,1.54,14.56,2.33,22.17,2.33c3.14,0,6.28-0.15,9.36-0.39L830.25,555.23z"/>
</g>
<g class="st0">
	<path class="st1" d="M715.71,682.2l-501.94-1.54l0.64,95.77c-5.35-0.85-10.88-1.27-16.46-1.27c-5.11,0-10.12,0.36-15.04,1.06
		l-0.73-111.29c-0.03-4.2,1.63-8.25,4.62-11.24c2.96-2.96,7.04-4.77,11.21-4.62l519.22,1.63c-1.33,6.74-2.02,13.68-2.02,20.81
		C715.2,675.13,715.38,678.7,715.71,682.2z"/>
</g>
<g class="st0">
	<path class="st1" d="M525.6,883.85c0,1.84,0.06,3.69,0.15,5.5l-327.96-3.11c-8.7-0.09-15.68-7.19-15.62-15.86l0.6-94.62
		c4.95,0.72,10,1.09,15.17,1.09c5.56,0,11.03-0.42,16.34-1.24l-0.51,79.27l315,2.99C526.69,866.18,525.6,874.88,525.6,883.85z"/>
</g>
<g class="st0">
	<path class="st1" d="M716.3,446.52l-517.68-1.63c-4.17,0-8.19-1.69-11.12-4.65c-2.96-2.96-4.59-6.98-4.59-11.15l0.85-222.01
		c9.94,3.08,20.51,4.71,31.48,4.74l-0.76,201.62L371,413.92V209.64c5.14,1.06,10.36,1.72,15.74,1.99c1.93,0.12,3.9,0.18,5.86,0.18
		c3.35,0,6.65-0.15,9.91-0.45v202.62l162.41,0.57V210.97h31.51v203.67l117.43,0.36c-0.18,2.45-0.27,4.92-0.27,7.43
		C713.58,430.72,714.51,438.79,716.3,446.52z"/>
</g>
<g>
	<path class="st125" d="M303.99,169.6c-19.24-28.37-51.75-46.98-88.61-46.98c-59.09,0-106.97,47.88-106.97,106.97
		c0,48.06,31.69,88.76,75.34,102.26c9.94,3.08,20.51,4.71,31.48,4.74h0.15c36.86,0,69.39-18.64,88.61-47.04
		c11.57-17.01,18.34-37.52,18.4-59.6v-0.36C322.39,207.36,315.62,186.7,303.99,169.6z M266.77,280.98c0,2.84-2.3,5.14-5.14,5.14
		h-30.81c-2.84,0-5.14-2.3-5.14-5.14v-18.85c0-5.77-4.5-10.27-10.27-10.27c-5.8,0-10.3,4.5-10.3,10.27v18.85
		c0,2.84-2.3,5.14-5.13,5.14h-30.81c-2.84,0-5.14-2.3-5.14-5.14v-49.6l10.27-8.16v52.63h20.54v-13.72c0-11.3,9.27-20.54,20.57-20.54
		c11.27,0,20.54,9.24,20.54,20.54v13.72h20.54v-52.63l10.27,8.16V280.98z M284.75,232.98c-1.72,2.21-5.35,2.51-7.43,0.63
		l-61.9-48.85l-61.93,48.85c-2.08,1.87-5.8,1.63-7.43-0.63c-1.45-1.99-1.09-5.8,1.12-7.43l23.72-18.73v-28.58
		c0-2.84,2.3-5.14,5.14-5.14h13.69c2.84,0,5.14,2.3,5.14,5.14v9.67l17.4-13.75c1.06-0.76,2.11-1.09,3.17-1.06
		c1.03,0,2.11,0.39,3.14,1.06l65.07,51.39C285.32,227.21,286.47,230.77,284.75,232.98z"/>
	<path class="st125" d="M256.5,223.22l10.27,8.16v49.6c0,2.84-2.3,5.14-5.14,5.14h-30.81c-2.84,0-5.14-2.3-5.14-5.14v-18.85
		c0-5.77-4.5-10.27-10.27-10.27c-5.8,0-10.3,4.5-10.3,10.27v18.85c0,2.84-2.3,5.14-5.13,5.14h-30.81c-2.84,0-5.14-2.3-5.14-5.14
		v-49.6l10.27-8.16v52.63h20.54v-13.72c0-11.3,9.27-20.54,20.57-20.54c11.27,0,20.54,9.24,20.54,20.54v13.72h20.54V223.22z"/>
	<path class="st125" d="M284.75,232.98c-1.72,2.21-5.35,2.51-7.43,0.63l-61.9-48.85l-61.93,48.85c-2.08,1.87-5.8,1.63-7.43-0.63
		c-1.45-1.99-1.09-5.8,1.12-7.43l23.72-18.73v-28.58c0-2.84,2.3-5.14,5.14-5.14h13.69c2.84,0,5.14,2.3,5.14,5.14v9.67l17.4-13.75
		c1.06-0.76,2.11-1.09,3.17-1.06c1.03,0,2.11,0.39,3.14,1.06l65.07,51.39C285.32,227.21,286.47,230.77,284.75,232.98z"/>
</g>
<g transform="translate(0,-952.36218)">
	<g>
		<path class="st135" d="M283.63,1177.91l-65.07-51.39c-1.03-0.66-2.12-1.06-3.14-1.06c-1.06-0.03-2.11,0.3-3.17,1.06l-17.4,13.75
			v-9.67c0-2.84-2.3-5.14-5.14-5.14h-13.69c-2.84,0-5.14,2.3-5.14,5.14v28.58l-23.72,18.73c-2.21,1.63-2.57,5.44-1.12,7.43
			c1.63,2.27,5.35,2.51,7.43,0.63l61.93-48.85l61.9,48.85c2.08,1.87,5.71,1.57,7.43-0.63
			C286.47,1183.14,285.32,1179.57,283.63,1177.91z M184.57,1148.36l-3.41,2.72v-15.35h3.41V1148.36z M256.5,1175.58v52.63h-20.54
			v-13.72c0-11.3-9.27-20.54-20.54-20.54c-11.3,0-20.57,9.24-20.57,20.54v13.72H174.3v-52.63l-10.27,8.16v49.6
			c0,2.84,2.3,5.14,5.14,5.14h30.81c2.84,0,5.13-2.3,5.13-5.14v-18.85c0-5.77,4.5-10.27,10.3-10.27c5.77,0,10.27,4.5,10.27,10.27
			v18.85c0,2.84,2.3,5.14,5.14,5.14h30.81c2.84,0,5.14-2.3,5.14-5.14v-49.6L256.5,1175.58z"/>
	</g>
</g>
<g>
	<path class="st125" d="M927.55,412.72c0,55.95-42.93,101.87-97.64,106.61c-3.08,0.24-6.22,0.39-9.36,0.39
		c-7.61,0-15.01-0.79-22.17-2.33c-40.66-8.55-72.81-40.21-82.08-80.6c-1.78-7.73-2.72-15.8-2.72-24.08c0-2.51,0.09-4.98,0.27-7.43
		c3.81-55.62,50.12-99.54,106.7-99.54C879.64,305.75,927.55,353.63,927.55,412.72z"/>
</g>
<g>
	<path class="st145" d="M499.6,229.59c0,55.74-42.66,101.57-97.09,106.55c-3.26,0.3-6.56,0.45-9.91,0.45
		c-1.96,0-3.93-0.06-5.86-0.18c-5.38-0.27-10.6-0.94-15.74-1.99c-48.73-10-85.4-53.14-85.4-104.83c0-59.09,47.91-106.97,107-106.97
		S499.6,170.5,499.6,229.59z"/>
</g>
<g transform="translate(0,-952.36218)">
	<g>
		<path class="st135" d="M433.71,1175.58v52.63h-20.54v-13.72c0-11.3-9.27-20.54-20.57-20.54c-11.3,0-20.54,9.24-20.54,20.54v13.72
			h-20.54v-52.63l-10.27,8.16v49.6c0,2.84,2.3,5.14,5.14,5.14h30.81c2.84,0,5.14-2.3,5.14-5.14v-18.85c0-5.77,4.5-10.27,10.27-10.27
			c5.8,0,10.27,4.5,10.27,10.27v18.85c0,2.84,2.33,5.14,5.17,5.14h30.81c2.84,0,5.14-2.3,5.14-5.14v-49.6L433.71,1175.58z
			 M460.84,1177.91l-65.07-51.39c-1.03-0.66-2.11-1.06-3.17-1.06c-0.12,0-0.24,0-0.36,0.03c-0.91,0.03-1.84,0.36-2.78,1.03
			l-17.4,13.75v-9.67c0-2.84-2.3-5.14-5.14-5.14h-13.68c-2.84,0-5.17,2.3-5.17,5.14v28.58l-23.68,18.73
			c-1.33,0.97-1.99,2.72-1.99,4.41c0,1.12,0.3,2.24,0.88,3.02c1.63,2.27,5.35,2.51,7.43,0.63l61.9-48.85l26.83,21.18l35.1,27.67
			c2.08,1.87,5.71,1.57,7.43-0.63C463.68,1183.14,462.5,1179.57,460.84,1177.91z M361.78,1148.36l-3.41,2.72v-15.35h3.41V1148.36z"
			/>
	</g>
</g>
<g>
	<circle class="st146" cx="579.83" cy="229.6" r="106.99"/>
</g>
<g transform="translate(0,-952.36218)">
	<g>
		<path class="st147" d="M620.95,1175.58v52.63h-20.57v-13.72c0-11.3-9.24-20.54-20.54-20.54c-11.3,0-20.54,9.24-20.54,20.54v13.72
			h-20.54v-52.63l-10.27,8.16v49.6c0,2.84,2.3,5.14,5.14,5.14h30.81c2.84,0,5.14-2.3,5.14-5.14v-18.85c0-5.77,4.5-10.27,10.27-10.27
			c5.77,0,10.27,4.5,10.27,10.27v18.85c0,2.84,2.3,5.14,5.14,5.14h30.84c2.84,0,5.14-2.3,5.14-5.14v-49.6L620.95,1175.58z
			 M648.08,1177.91l-65.07-51.39c-1.06-0.66-2.11-1.06-3.17-1.06c-1.06-0.03-2.08,0.3-3.14,1.06l-17.4,13.75v-9.67
			c0-2.84-2.3-5.14-5.14-5.14h-13.72c-2.84,0-5.13,2.3-5.13,5.14v28.58l-23.68,18.73c-2.24,1.63-2.6,5.44-1.15,7.43
			c1.66,2.27,5.35,2.51,7.46,0.63l61.9-48.85l61.93,48.85c2.09,1.87,5.71,1.57,7.43-0.63
			C650.92,1183.14,649.74,1179.57,648.08,1177.91z M549.02,1148.36l-3.44,2.72v-15.35h3.44V1148.36z"/>
	</g>
</g>
<g>
	<path class="st146" d="M304.92,669.87c0,53.53-39.3,97.85-90.63,105.73c-5.32,0.82-10.79,1.24-16.34,1.24
		c-5.17,0-10.21-0.36-15.17-1.09c-51.9-7.34-91.84-51.96-91.84-105.89c0-53.98,40-98.63,91.96-105.95
		c4.92-0.69,9.94-1.06,15.04-1.06c5.59,0,11.12,0.42,16.46,1.27C265.67,572.05,304.92,616.37,304.92,669.87z"/>
</g>
<g>
	<path class="st135" d="M859.61,411.9c-3.56,0-6.92,0.78-9.94,2.21c-3.66,1.69-6.83,4.29-9.18,7.52c-1.84,2.54-3.23,5.47-3.93,8.61
		c-0.42,1.72-0.63,3.5-0.63,5.35c0,2.24,0.3,4.41,0.91,6.47c2.81,9.94,11.96,17.25,22.78,17.25c13.08,0,23.68-10.63,23.68-23.71
		C883.3,422.54,872.69,411.9,859.61,411.9z M859.61,447.49c-6.56,0-11.87-5.35-11.87-11.9c0-6.53,5.32-11.87,11.87-11.87
		s11.87,5.35,11.87,11.87C871.48,442.14,866.17,447.49,859.61,447.49z"/>
</g>
<g>
	<path class="st135" d="M804.6,430.24c-0.73-3.14-2.11-6.07-3.96-8.61c-2.36-3.23-5.53-5.83-9.18-7.52
		c-3.02-1.42-6.37-2.21-9.94-2.21c-13.08,0-23.71,10.63-23.71,23.68c0,13.08,10.63,23.71,23.71,23.71
		c10.81,0,19.97-7.31,22.78-17.25c0.6-2.05,0.91-4.23,0.91-6.47C805.2,433.75,804.99,431.96,804.6,430.24z M781.52,447.49
		c-6.56,0-11.9-5.35-11.9-11.9c0-6.53,5.35-11.87,11.9-11.87c6.56,0,11.87,5.35,11.87,11.87
		C793.39,442.14,788.08,447.49,781.52,447.49z"/>
</g>
<g>
	<path class="st135" d="M821.03,354.47c-13.08,0-23.68,10.63-23.68,23.68c0,6.56,2.69,12.51,7.01,16.8
		c2.81,2.78,6.31,4.89,10.21,5.98c2.05,0.6,4.23,0.91,6.46,0.91c1.93,0,3.84-0.24,5.65-0.69c3.96-0.97,7.55-2.93,10.45-5.65
		c4.65-4.32,7.58-10.51,7.58-17.34C844.72,365.11,834.09,354.47,821.03,354.47z M809.16,378.16c0-6.56,5.32-11.87,11.87-11.87
		c6.56,0,11.87,5.32,11.87,11.87c0,6.56-5.32,11.87-11.87,11.87C814.48,390.03,809.16,384.71,809.16,378.16z"/>
</g>
<g>
	<rect x="799.27" y="430.23" class="st135" width="42.6" height="11.81"/>
</g>
<g>
	
		<rect x="832.59" y="391.15" transform="matrix(0.8295 -0.5586 0.5586 0.8295 -84.9599 537.9708)" class="st135" width="11.81" height="33.94"/>
</g>
<g>
	<polygon class="st135" points="798.05,425.49 788.25,418.89 807.44,390.38 817.24,396.97 	"/>
</g>
<g>
	<path class="st145" d="M927.55,661.78c0,59.09-47.91,107-107,107c-55.47,0-101.08-42.23-106.46-96.31
		c-0.33-3.5-0.51-7.07-0.51-10.69c0-7.13,0.69-14.08,2.02-20.81c8.28-42.05,41.21-75.25,83.14-83.89
		c7.04-1.51,14.32-2.27,21.81-2.27c3.26,0,6.49,0.15,9.7,0.42C884.81,560.13,927.55,605.96,927.55,661.78z"/>
</g>
<g>
	<g>
		<path class="st149" d="M870.58,674.76c-5.12,0-10.31-1.88-15.06-3.6c-3.11-1.13-6.05-2.19-8.67-2.66
			c-2.14-0.38-3.57-2.42-3.19-4.56c0.38-2.14,2.43-3.57,4.56-3.19c3.29,0.58,6.69,1.81,9.98,3c5.77,2.09,11.72,4.26,16.06,2.46
			c2.77-1.14,5.25-4.71,5.91-8.49c0.3-1.69,0.45-4.83-1.84-6.91c-1.84-1.68-4.76-1.99-8.14-2.34c-4.08-0.43-8.71-0.92-12.77-4.03
			l-0.49-0.37c-2.88-2.18-5.06-4.22-6.85-10.56c-0.59-2.09,0.63-4.27,2.73-4.86c2.1-0.6,4.27,0.63,4.86,2.73
			c1.2,4.28,2.14,4.99,4.02,6.41l0.53,0.4c2.29,1.76,5.45,2.09,8.8,2.45c4.16,0.44,8.86,0.93,12.62,4.35
			c3.71,3.37,5.27,8.51,4.3,14.1c-1.13,6.46-5.42,12.25-10.67,14.42C875.08,674.4,872.83,674.76,870.58,674.76z"/>
	</g>
	<g>
		<path class="st149" d="M843.91,728.93c-0.62,0-1.21-0.05-1.76-0.12c-5.89-0.8-11.64-5.77-15.4-13.27
			c-6.9-13.8-2.98-26.28,0.17-36.31c2.13-6.8,3.98-12.67,1.79-16.83c-1.01-1.93-0.28-4.31,1.65-5.32c1.93-1.01,4.31-0.28,5.32,1.65
			c3.72,7.06,1.31,14.73-1.24,22.86c-3.01,9.57-6.11,19.46-0.63,30.42c2.51,5.02,6.21,8.55,9.42,8.99c1.87,0.25,3.63-0.56,5.38-2.5
			c1.73-1.91,2.5-3.97,2.34-6.27c-0.38-5.66-6.04-11.61-8.19-13.42c-1.66-1.4-1.87-3.89-0.47-5.55c1.4-1.67,3.89-1.87,5.55-0.47
			c0.42,0.35,10.29,8.8,10.97,18.91c0.3,4.49-1.17,8.55-4.36,12.08C850.76,727.86,846.91,728.93,843.91,728.93z"/>
	</g>
	<g>
		<path class="st149" d="M851.72,618.38c-0.13,0-0.26-0.01-0.4-0.02c-2.16-0.22-3.74-2.15-3.53-4.31c0.32-3.22-3.1-7.28-7.05-8.35
			c-3.05-0.83-8.36,1.76-10.46,3.14c-1.82,1.2-4.26,0.71-5.46-1.12c-1.2-1.81-0.7-4.26,1.12-5.45c0.96-0.64,9.61-6.16,16.87-4.17
			c7.78,2.12,13.53,9.63,12.81,16.74C855.43,616.87,853.72,618.38,851.72,618.38z"/>
	</g>
	<g>
		<path class="st149" d="M871.02,648.7c-0.11,0-0.23,0-0.34-0.02c-2.17-0.18-3.77-2.09-3.59-4.26c1.57-18.29-2.23-21.86-11.36-22.93
			c-2.52-0.3-6.24-0.06-9.25,5.45c-1.04,1.91-3.43,2.61-5.35,1.56c-1.91-1.04-2.61-3.44-1.56-5.35c3.81-6.97,9.88-10.32,17.09-9.49
			c17.24,2.03,19.77,14.03,18.28,31.43C874.77,647.15,873.04,648.7,871.02,648.7z"/>
	</g>
	<g>
		<path class="st149" d="M866.8,660.72c-1.17,0-2.32-0.52-3.1-1.5c-3.2-4.07-10.6-3.43-16.55-2.9c-2.95,0.26-5.5,0.48-7.68,0.22
			c-6.1-0.73-10.56-4.41-12.23-10.1c-1.85-6.29,0.13-14.07,4.53-17.72c1.67-1.39,4.16-1.16,5.55,0.52s1.16,4.16-0.52,5.55
			c-1.78,1.47-3.04,5.92-2,9.43c0.79,2.67,2.62,4.14,5.62,4.5c1.37,0.17,3.65-0.03,6.05-0.25c7.43-0.65,17.6-1.54,23.43,5.88
			c1.34,1.71,1.05,4.19-0.66,5.53C868.51,660.45,867.65,660.72,866.8,660.72z"/>
	</g>
	<g>
		<path class="st149" d="M869.5,692.04c-0.67,0-1.38-0.04-2.12-0.11c-8.39-0.87-12.31-3.08-15.45-4.87
			c-2.27-1.29-3.78-2.14-6.82-2.28c-7.02-0.3-13.85,5.65-13.92,5.71c-1.63,1.43-4.12,1.28-5.56-0.34c-1.44-1.63-1.29-4.11,0.33-5.55
			c0.38-0.33,9.3-8.12,19.5-7.69c4.93,0.22,7.69,1.79,10.35,3.3c2.76,1.57,5.62,3.19,12.37,3.88c3.99,0.42,5.33-1.07,5.76-1.55
			c2.98-3.37,1.99-11.48,1.4-14.06c-0.48-2.12,0.84-4.23,2.96-4.71c2.13-0.49,4.23,0.83,4.72,2.95c0.33,1.42,3.01,14.03-3.17,21.03
			C878.06,689.77,874.86,692.04,869.5,692.04z"/>
	</g>
	<g>
		<path class="st149" d="M853.75,721.84c-1.61,0-3.11-0.99-3.7-2.58c-0.75-2.04,0.3-4.3,2.34-5.05c0.12-0.05,12.13-4.56,15.55-13.03
			c1.42-3.51,1.14-7.22-0.84-11.35c-0.94-1.96-0.12-4.31,1.84-5.26c1.96-0.94,4.31-0.12,5.26,1.84c2.97,6.16,3.32,12.14,1.04,17.75
			c-4.76,11.71-19.51,17.21-20.14,17.43C854.65,721.76,854.19,721.84,853.75,721.84z"/>
	</g>
	<g>
		<path class="st149" d="M842.72,715.25c-0.57,0-1.15-0.12-1.7-0.39c-15.88-7.63-17.4-21.34-17.46-21.93
			c-0.21-2.17,1.37-4.09,3.53-4.3c2.16-0.18,4.07,1.36,4.3,3.5c0.05,0.46,1.32,10,13.03,15.63c1.96,0.94,2.79,3.3,1.84,5.26
			C845.59,714.43,844.19,715.25,842.72,715.25z"/>
	</g>
	<g>
		<path class="st149" d="M772.72,674.76c-2.26,0-4.5-0.37-6.68-1.27c-5.25-2.17-9.54-7.96-10.67-14.41
			c-0.98-5.59,0.59-10.73,4.3-14.1c3.76-3.41,8.46-3.91,12.62-4.35c3.35-0.35,6.51-0.68,8.8-2.45l0.53-0.4
			c1.87-1.42,2.81-2.13,4.02-6.41c0.59-2.09,2.76-3.32,4.86-2.73c2.09,0.59,3.32,2.77,2.73,4.86c-1.78,6.34-3.96,8.38-6.85,10.56
			l-0.48,0.37c-4.06,3.12-8.69,3.6-12.77,4.03c-3.38,0.35-6.3,0.66-8.14,2.34c-2.29,2.08-2.13,5.22-1.84,6.91
			c0.66,3.78,3.15,7.35,5.92,8.49c4.34,1.8,10.3-0.37,16.06-2.46c3.29-1.19,6.69-2.42,9.98-3c2.15-0.38,4.18,1.05,4.56,3.19
			c0.38,2.14-1.05,4.18-3.19,4.56c-2.62,0.47-5.56,1.53-8.67,2.65C783.03,672.88,777.84,674.76,772.72,674.76z"/>
	</g>
	<g>
		<path class="st149" d="M799.39,728.93c-3,0-6.85-1.06-10.54-5.14c-3.19-3.53-4.66-7.6-4.36-12.08
			c0.68-10.11,10.55-18.55,10.97-18.91c1.66-1.41,4.15-1.2,5.55,0.47c1.4,1.66,1.19,4.14-0.46,5.55l0,0
			c-2.16,1.83-7.83,7.83-8.2,13.44c-0.15,2.3,0.62,4.35,2.34,6.25c1.75,1.94,3.52,2.77,5.38,2.5c3.21-0.44,6.91-3.97,9.42-8.99
			c5.48-10.96,2.37-20.85-0.63-30.43c-2.55-8.12-4.96-15.8-1.24-22.86c1.02-1.92,3.39-2.66,5.32-1.65c1.92,1.02,2.66,3.4,1.65,5.32
			c-2.19,4.16-0.35,10.03,1.79,16.83c3.15,10.03,7.06,22.5,0.16,36.31c-3.75,7.51-9.51,12.47-15.4,13.27
			C800.6,728.88,800.01,728.93,799.39,728.93z"/>
	</g>
	<g>
		<path class="st149" d="M791.58,618.38c-2,0-3.71-1.52-3.92-3.55c-0.71-7.11,5.04-14.61,12.81-16.74c7.27-2,15.9,3.53,16.87,4.17
			c1.82,1.2,2.31,3.64,1.12,5.45c-1.2,1.82-3.63,2.33-5.45,1.12c-2.11-1.38-7.44-3.96-10.46-3.15c-3.95,1.08-7.37,5.13-7.05,8.35
			c0.22,2.17-1.36,4.1-3.53,4.31C791.84,618.37,791.71,618.38,791.58,618.38z"/>
	</g>
	<g>
		<path class="st149" d="M772.28,648.7c-2.02,0-3.74-1.55-3.92-3.6c-1.5-17.4,1.04-29.4,18.28-31.43c7.2-0.84,13.26,2.52,17.08,9.49
			c1.05,1.91,0.35,4.3-1.56,5.35c-1.92,1.05-4.3,0.35-5.35-1.56c-3.02-5.51-6.72-5.76-9.25-5.45c-9.12,1.07-12.93,4.64-11.36,22.93
			c0.19,2.17-1.42,4.08-3.58,4.26C772.5,648.7,772.39,648.7,772.28,648.7z"/>
	</g>
	<g>
		<path class="st149" d="M776.5,660.72c-0.85,0-1.71-0.27-2.43-0.84c-1.71-1.34-2.01-3.82-0.66-5.53c5.83-7.41,16-6.52,23.43-5.88
			c2.4,0.21,4.68,0.4,6.05,0.25c2.99-0.36,4.83-1.83,5.62-4.5c1.03-3.52-0.23-7.96-2-9.43c-1.67-1.39-1.9-3.87-0.52-5.55
			c1.39-1.67,3.88-1.91,5.55-0.52c4.39,3.65,6.38,11.43,4.53,17.72c-1.68,5.68-6.13,9.36-12.23,10.1c-2.18,0.26-4.73,0.04-7.68-0.22
			c-5.94-0.52-13.35-1.17-16.55,2.9C778.82,660.21,777.67,660.72,776.5,660.72z"/>
	</g>
	<g>
		<path class="st149" d="M773.8,692.04c-5.36,0-8.56-2.27-10.36-4.3c-6.18-7-3.49-19.61-3.17-21.03c0.49-2.12,2.61-3.45,4.72-2.95
			c2.12,0.48,3.44,2.6,2.96,4.71c-0.58,2.58-1.58,10.7,1.4,14.06c0.43,0.48,1.75,1.96,5.76,1.55c6.75-0.69,9.61-2.32,12.37-3.88
			c2.66-1.51,5.42-3.08,10.35-3.3c10.28-0.38,19.13,7.35,19.5,7.69c1.62,1.44,1.77,3.93,0.33,5.56c-1.44,1.63-3.92,1.78-5.55,0.33
			l0,0c-0.07-0.06-6.94-6.01-13.92-5.71c-3.04,0.14-4.55,0.99-6.82,2.28c-3.15,1.78-7.06,4-15.45,4.87
			C775.18,692,774.47,692.04,773.8,692.04z"/>
	</g>
	<g>
		<path class="st149" d="M789.55,721.84c-0.45,0-0.9-0.08-1.35-0.24c-0.63-0.23-15.37-5.72-20.13-17.43
			c-2.28-5.62-1.93-11.59,1.04-17.76c0.94-1.96,3.3-2.79,5.26-1.83c1.96,0.94,2.78,3.3,1.84,5.26c-1.99,4.13-2.27,7.85-0.84,11.37
			c2.87,7.06,12.19,11.78,15.53,13c2.04,0.75,3.1,3,2.35,5.05C792.67,720.85,791.16,721.84,789.55,721.84z"/>
	</g>
	<g>
		<path class="st149" d="M800.58,715.25c-1.47,0-2.87-0.82-3.55-2.23c-0.94-1.96-0.12-4.32,1.84-5.26
			c11.74-5.65,12.99-15.23,13.04-15.63c0.25-2.15,2.17-3.73,4.33-3.48c2.15,0.23,3.71,2.13,3.5,4.28
			c-0.06,0.58-1.58,14.29-17.46,21.93C801.73,715.13,801.15,715.25,800.58,715.25z"/>
	</g>
</g>
<g>
	<path class="st147" d="M198.49,668.09c-4.2,0-7.58,3.41-7.58,7.61c0,2.9,1.63,5.44,4.05,6.71c1.06,0.57,2.27,0.88,3.54,0.88
		c1.27,0,2.48-0.3,3.53-0.88c2.42-1.27,4.05-3.81,4.05-6.71C206.07,671.51,202.69,668.09,198.49,668.09z M198.49,676.52
		c-0.45,0-0.85-0.36-0.85-0.82c0-0.48,0.39-0.85,0.85-0.85c0.45,0,0.85,0.36,0.85,0.85C199.33,676.16,198.94,676.52,198.49,676.52z"
		/>
</g>
<g>
	<polygon class="st147" points="206.63,698.39 190.32,698.39 198.49,670.26 	"/>
</g>
<g>
	<path class="st135" d="M232.26,647.79c-3.47-3.38-7.46-6.25-11.81-8.49c-6.74-3.47-14.38-5.44-22.51-5.44
		c-27.22,0-49.39,22.14-49.39,49.36c0,27.22,22.17,49.39,49.39,49.39s49.36-22.17,49.36-49.39
		C247.31,669.33,241.54,656.76,232.26,647.79z M197.94,720.81c-20.72,0-37.58-16.86-37.58-37.58c0-20.69,16.86-37.55,37.58-37.55
		c20.69,0,37.55,16.86,37.55,37.55C235.5,703.95,218.64,720.81,197.94,720.81z"/>
</g>
<g>
	<path class="st135" d="M226.35,653.49c-3.26,0-5.91-2.65-5.91-5.91v-19.51c0-11.49-9.35-20.84-20.84-20.84
		c-5.9,0-11.55,2.55-15.52,6.98c-2.17,2.43-5.91,2.64-8.34,0.47c-2.43-2.18-2.64-5.91-0.46-8.34c6.21-6.94,15.08-10.92,24.33-10.92
		c18.01,0,32.66,14.65,32.66,32.65v19.51C232.26,650.84,229.62,653.49,226.35,653.49z"/>
</g>
<g>
	<path class="st135" d="M172.86,633.98c-3.26,0-5.91-2.65-5.91-5.91c0-2.65,0.32-5.29,0.96-7.85c0.79-3.16,3.98-5.1,7.16-4.31
		c3.17,0.79,5.1,3.99,4.31,7.16c-0.4,1.62-0.61,3.3-0.61,4.99C178.77,631.33,176.12,633.98,172.86,633.98z"/>
</g>
<g>
	<g>
		<path class="st125" d="M319.49,931.71c0,59.09-47.91,106.97-107,106.97c-57.25,0-103.98-44.92-106.82-101.47
			c-0.09-1.81-0.15-3.66-0.15-5.5c0-8.97,1.09-17.67,3.17-25.98c11.6-46.55,53.68-81.02,103.8-81.02
			C271.58,824.71,319.49,872.62,319.49,931.71z"/>
	</g>
	<g>
		<g>
			<path class="st135" d="M177.92,973.33c-2.02,0-4.03-0.77-5.57-2.31c-3.08-3.08-3.08-8.06,0-11.14l70.52-70.52
				c3.07-3.08,8.06-3.08,11.14,0c3.08,3.08,3.08,8.06,0,11.14l-70.52,70.52C181.95,972.56,179.93,973.33,177.92,973.33z"/>
		</g>
		<g>
			<path class="st135" d="M248.44,973.33c-2.02,0-4.03-0.77-5.57-2.31l-70.52-70.52c-3.08-3.08-3.08-8.06,0-11.14
				c3.07-3.08,8.06-3.08,11.14,0l70.52,70.52c3.08,3.08,3.08,8.06,0,11.14C252.47,972.56,250.46,973.33,248.44,973.33z"/>
		</g>
	</g>
</g>
<g>
	<g>
		<circle class="st146" cx="388.37" cy="934.57" r="106.99"/>
	</g>
	<g>
		<g>
			<path class="st135" d="M353.78,976.19c-2.02,0-4.03-0.77-5.57-2.31c-3.08-3.08-3.08-8.06,0-11.14l70.52-70.52
				c3.07-3.08,8.06-3.08,11.14,0c3.08,3.08,3.08,8.06,0,11.14l-70.52,70.52C357.82,975.42,355.8,976.19,353.78,976.19z"/>
		</g>
		<g>
			<path class="st135" d="M424.31,976.19c-2.02,0-4.03-0.77-5.57-2.31l-70.52-70.52c-3.08-3.08-3.08-8.06,0-11.14
				c3.07-3.08,8.06-3.08,11.14,0l70.52,70.52c3.08,3.08,3.08,8.06,0,11.14C428.34,975.42,426.32,976.19,424.31,976.19z"/>
		</g>
	</g>
</g>
<g>
	<g>
		<path class="st145" d="M683.23,934.14c0,56.04-43.08,101.99-97.91,106.58c-2.99,0.27-6.04,0.39-9.09,0.39
			c-7.67,0-15.2-0.82-22.42-2.36c-48.34-10.3-84.56-53.2-84.56-104.62c0-59.09,47.88-107,106.97-107
			C635.32,827.14,683.23,875.05,683.23,934.14z"/>
	</g>
	<g>
		<path class="st149" d="M562.41,992.91l-34.89-34.89c-3.08-3.08-3.08-8.06,0-11.14c3.07-3.08,8.06-3.08,11.14,0l22.48,22.48
			l67.32-83.64c2.72-3.39,7.68-3.93,11.07-1.2c3.39,2.73,3.92,7.68,1.2,11.07L562.41,992.91z"/>
	</g>
</g>
<g>
	<g>
		<path class="st152" d="M867.26,1110.12H754c-5.59,0-10.15,4.56-10.15,10.15v83.17c0,5.59,4.56,10.15,10.15,10.15h113.26
			c5.59,0,10.15-4.56,10.15-10.15v-83.17C877.41,1114.68,872.85,1110.12,867.26,1110.12z M867.56,1203.44c0,0.15-0.15,0.3-0.3,0.3
			H754c-0.15,0-0.3-0.15-0.3-0.3v-83.17c0-0.15,0.15-0.3,0.3-0.3h113.26c0.15,0,0.3,0.15,0.3,0.3V1203.44z"/>
	</g>
	<g>
		<path class="st152" d="M870.82,1145.05H750.45c-2.72,0-4.92-2.2-4.92-4.92c0-2.72,2.2-4.92,4.92-4.92h120.37
			c2.72,0,4.92,2.2,4.92,4.92C875.74,1142.85,873.54,1145.05,870.82,1145.05z"/>
	</g>
	<g>
		<path class="st152" d="M859.12,1133.35h-60.18c-2.72,0-4.92-2.2-4.92-4.92c0-2.72,2.2-4.92,4.92-4.92h60.18
			c2.72,0,4.92,2.2,4.92,4.92C864.04,1131.14,861.84,1133.35,859.12,1133.35z"/>
	</g>
	<g>
		<path class="st152" d="M758.81,1132.37c-0.51,0-1.02-0.12-1.5-0.32c-0.47-0.2-0.91-0.47-1.3-0.83c-0.36-0.39-0.63-0.83-0.83-1.3
			c-0.2-0.47-0.31-0.98-0.31-1.5s0.12-1.02,0.31-1.5c0.2-0.51,0.47-0.95,0.83-1.3c0.39-0.35,0.79-0.63,1.3-0.87
			c1.46-0.59,3.19-0.24,4.29,0.87c0.35,0.39,0.63,0.79,0.83,1.3c0.2,0.47,0.32,0.98,0.32,1.5s-0.12,1.02-0.32,1.5
			c-0.2,0.47-0.47,0.91-0.83,1.3c-0.39,0.35-0.83,0.63-1.3,0.83C759.84,1132.25,759.33,1132.37,758.81,1132.37z"/>
	</g>
	<g>
		<path class="st152" d="M772.16,1132.37c-0.51,0-1.02-0.12-1.5-0.32c-0.47-0.2-0.91-0.47-1.26-0.83c-0.39-0.39-0.67-0.83-0.87-1.3
			c-0.2-0.47-0.32-0.98-0.32-1.5s0.12-1.02,0.32-1.5c0.2-0.51,0.51-0.91,0.87-1.3c0.16-0.16,0.39-0.35,0.59-0.47
			c0.2-0.16,0.43-0.28,0.67-0.39c0.24-0.08,0.51-0.16,0.75-0.2c0.79-0.16,1.54-0.08,2.28,0.2c0.47,0.23,0.91,0.51,1.26,0.87
			c0.39,0.39,0.67,0.79,0.87,1.3c0.2,0.47,0.32,0.98,0.32,1.5s-0.12,1.02-0.32,1.5c-0.2,0.47-0.47,0.91-0.87,1.3
			C774.21,1131.93,773.23,1132.37,772.16,1132.37z"/>
	</g>
	<g>
		<path class="st152" d="M785.56,1132.37c-1.06,0-2.05-0.43-2.8-1.14c-0.35-0.39-0.63-0.83-0.83-1.3c-0.2-0.47-0.31-0.98-0.31-1.5
			s0.12-1.02,0.31-1.5c0.2-0.51,0.47-0.91,0.83-1.3c0.39-0.35,0.83-0.63,1.3-0.87c0.98-0.4,2.05-0.4,2.99,0
			c0.51,0.23,0.94,0.51,1.3,0.87c0.35,0.39,0.63,0.79,0.83,1.3c0.2,0.47,0.32,0.98,0.32,1.5s-0.08,1.02-0.28,1.5
			c-0.2,0.47-0.51,0.91-0.87,1.3C787.6,1131.93,786.62,1132.37,785.56,1132.37z"/>
	</g>
</g>
</svg>
