<?xml version="1.0" encoding="utf-8"?>
<!-- Generator: Adobe Illustrator 23.0.1, SVG Export Plug-In . SVG Version: 6.00 Build 0)  -->
<svg version="1.1" id="Capa_1" xmlns="http://www.w3.org/2000/svg" xmlns:xlink="http://www.w3.org/1999/xlink" x="0px" y="0px"
	 viewBox="0 0 421 421" style="enable-background:new 0 0 421 421;" xml:space="preserve">
<style type="text/css">
	.st0{fill:#41D4A3;}
	.st1{clip-path:url(#SVGID_2_);}
	.st2{fill:#42B88E;}
	.st3{fill:#8BE4C7;}
	.st4{fill:#B1EDD9;}
	.st5{fill:#D2F3E8;}
</style>
<path class="st0" d="M210.5,420.9L210.5,420.9C94.3,420.9,0.1,326.7,0.1,210.5l0,0C0.1,94.3,94.3,0.1,210.5,0.1l0,0
	c116.2,0,210.4,94.2,210.4,210.4l0,0C420.9,326.7,326.7,420.9,210.5,420.9z"/>
<g>
	<g>
		<defs>
			<path id="SVGID_1_" d="M210.5,421L210.5,421C94.24,421,0,326.76,0,210.5l0,0C0,94.24,94.24,0,210.5,0l0,0
				C326.76,0,421,94.24,421,210.5l0,0C421,326.76,326.76,421,210.5,421z"/>
		</defs>
		<clipPath id="SVGID_2_">
			<use xlink:href="#SVGID_1_"  style="overflow:visible;"/>
		</clipPath>
		<g class="st1">
			<path class="st2" d="M87.76,267.51c-4.81-1.6-68.88,1.6-86.5-3.2c-17.62-4.81-24.03-30.44-27.23-30.44s59.27-68.88,113.74-9.61
				C95.07,232.22,87.76,267.51,87.76,267.51z"/>
			<polygon class="st3" points="37.36,211.31 -23.67,234.25 7.28,197.56 37.75,191.47 			"/>
			<path class="st4" d="M372.9,246.31l-176.72,73.12c0,0-91.12-49.03-97.22-55.13c-6.09-6.09-58.17-60.65-76.45-63.7
				S-11,237.17-26.23,234.12s-67.03-24.37-67.03-24.37l176.72-73.12l42.66,18.28l60.94-27.42c0,0,14.75,0.69,27.42,9.14
				c18.28,12.19,21.33,33.52,36.56,51.8C265.09,205.3,372.9,246.31,372.9,246.31z"/>
			<path class="st5" d="M126.11,154.9l44.72-20.12l16.36-7.29c1.39,0.08,15.26,1.11,27.28,9.13c18.28,12.19,21.33,33.52,36.56,51.8
				c14.07,16.88,221.19,99.54,221.19,99.54L292.8,363.63c0,0-169.81-68.88-211.46-91.31c-16.68-31.85-48.06-80.1-65.68-70.49
				l110.22-47.02L126.11,154.9z"/>
			<polygon class="st0" points="-50.53,213.85 94.2,148.97 86.74,145.38 -57.99,210.25 			"/>
			<polygon class="st0" points="143.31,284.33 288.03,219.46 280.57,215.86 135.85,280.74 			"/>
			<polygon class="st0" points="181.76,303.55 326.48,238.68 319.02,235.08 174.3,299.96 			"/>
			<polygon class="st0" points="199.38,314.77 344.1,249.89 336.64,246.3 191.92,311.17 			"/>
			<polygon class="st0" points="143.31,261.9 267.21,206.64 259.75,203.05 135.85,258.31 			"/>
			<polygon class="st0" points="241.03,314.77 364.93,259.51 357.47,255.91 233.57,311.17 			"/>
			<polygon class="st0" points="277.87,330.79 401.77,275.53 394.31,271.93 270.41,327.19 			"/>
			<polygon class="st0" points="210.59,271.52 305.65,229.07 298.19,225.47 203.13,267.92 			"/>
			<polygon class="st0" points="287.49,309.96 382.55,267.52 375.09,263.92 280.02,306.37 			"/>
			<polygon class="st0" points="52.8,206.64 197.52,141.76 191.67,138.17 46.94,203.04 			"/>
			<polygon class="st0" points="107.27,203.43 211.94,156.18 207.68,150.98 103.01,198.24 			"/>
			<polygon class="st0" points="118.48,222.66 223.15,175.4 220.5,170.21 115.83,217.46 			"/>
			<polygon class="st0" points="108.87,253.09 234.37,196.23 231.71,191.03 106.21,247.9 			"/>
			<g>
				<g>
					<path class="st0" d="M350.19,173.44v-14.5H342c-6.06-5.98-15.06-11.13-26.11-14.99c-13.66-4.81-30.47-7.63-48.62-7.63
						s-34.92,2.82-48.6,7.63c-11.05,3.84-20.07,9-26.13,14.99h-8.47v19.7h0.1c2.08,21.42,38.48,38.46,83.11,38.46
						c45.94,0,83.2-18.09,83.2-40.4C350.47,175.61,350.36,174.52,350.19,173.44z M267.27,186.9c-27.73,0-50.88-9.53-56.36-22.2
						c7.51-11.2,29.19-19.29,54.75-19.29c27.73,0,50.88,9.52,56.34,22.19C314.49,178.79,292.84,186.9,267.27,186.9z"/>
					<path class="st4" d="M267.27,118.55c-45.96,0-83.2,18.09-83.2,40.4c0,22.3,37.25,40.39,83.2,40.39
						c45.94,0,83.2-18.09,83.2-40.39C350.47,136.63,313.21,118.55,267.27,118.55z M267.27,186.9c-31.8,0-57.57-12.51-57.57-27.95
						S235.48,131,267.27,131c31.8,0,57.57,12.51,57.57,27.95S299.07,186.9,267.27,186.9z"/>
					<g>
						<path class="st0" d="M324.84,158.95c0,3.03-1.01,5.93-2.84,8.65c-5.46-12.67-28.61-22.19-56.34-22.19
							c-25.57,0-47.24,8.09-54.75,19.29c-0.8-1.86-1.22-3.78-1.22-5.75c0-5.51,3.28-10.65,8.97-14.99
							c10.22-7.79,28.16-12.96,48.6-12.96s38.4,5.17,48.62,12.96C321.56,148.29,324.84,153.44,324.84,158.95z"/>
					</g>
				</g>
				<polygon class="st5" points="310.29,193.95 449.79,251.08 449.79,262.7 310.29,204.89 				"/>
				<polygon class="st4" points="449.28,251.05 310.31,194.02 330.73,185.81 469.7,243.68 				"/>
				<polygon class="st5" points="337.66,211.57 441.79,254.29 441.79,265.91 337.66,222.51 				"/>
				<polygon class="st4" points="441.27,254.26 337.54,211.65 375.59,197.03 479.31,240.48 				"/>
			</g>
		</g>
	</g>
</g>
</svg>
