<?xml version="1.0" encoding="utf-8"?>
<!-- Generator: Adobe Illustrator 23.0.1, SVG Export Plug-In . SVG Version: 6.00 Build 0)  -->
<svg version="1.1" id="Capa_1" xmlns="http://www.w3.org/2000/svg" xmlns:xlink="http://www.w3.org/1999/xlink" x="0px" y="0px"
	 viewBox="0 0 421 421" style="enable-background:new 0 0 421 421;" xml:space="preserve">
<style type="text/css">
	.st0{opacity:0.8;}
	.st1{fill:#DDE4F4;}
	.st2{fill:#DFE6F6;}
	.st3{fill:#F2F5FA;}
	.st4{fill:#96A7C5;}
	.st5{fill:#889BB5;}
	.st6{fill:#748AA5;}
	.st7{fill:#86CFCF;}
	.st8{fill:#44D8A7;stroke:#40E4B0;stroke-miterlimit:10;}
	.st9{opacity:0.8;fill:none;stroke:#B0BFD6;stroke-width:8;stroke-linejoin:round;stroke-miterlimit:10;}
	.st10{opacity:0.8;fill:#C6D1E5;stroke:#B0BFD6;stroke-width:8;stroke-miterlimit:10;}
	.st11{fill:#C6D1E5;}
	.st12{fill:#3EC19B;}
	.st13{opacity:0.3;}
	.st14{fill:#FFFFFF;}
	.st15{fill:#82E0C9;}
	.st16{fill:#003EB7;}
	.st17{fill:#86B1FF;}
	.st18{fill:#3BA6B2;}
	.st19{fill:#2EC3C5;}
	.st20{fill:none;}
	.st21{fill:#C0F2E4;}
	.st22{fill:#A3EFDB;}
	.st23{fill:url(#SVGID_1_);}
	.st24{fill:#B0BFD6;}
	.st25{fill:none;stroke:#DFE6F6;stroke-width:0.2;stroke-miterlimit:10;}
	.st26{fill:#ECF0F9;}
	.st27{fill:url(#SVGID_2_);}
	.st28{fill:url(#SVGID_3_);}
	.st29{fill:#8EA1BC;}
	.st30{fill:#42B88E;}
	.st31{fill:url(#SVGID_4_);}
	.st32{fill:#41D6A5;}
	.st33{fill:#B3EFDB;}
	.st34{fill:#8DE6C9;}
	.st35{fill:url(#SVGID_5_);}
	.st36{fill:url(#SVGID_6_);}
	.st37{clip-path:url(#SVGID_8_);fill:#F2F5FA;}
	.st38{clip-path:url(#SVGID_8_);}
	.st39{opacity:0.5;stroke:#96A7C5;stroke-width:0.25;stroke-miterlimit:10;}
	.st40{fill:none;stroke:#B7B7B7;stroke-miterlimit:10;}
	.st41{fill:#7ACEB2;}
	.st42{fill:#30B58C;}
	.st43{fill:#6AAA95;}
	.st44{fill:#67C1A5;}
	.st45{fill:none;stroke:#3EC19B;stroke-miterlimit:10;}
	.st46{opacity:0.15;fill:none;stroke:#000000;stroke-width:0.5;stroke-miterlimit:10;}
	.st47{clip-path:url(#SVGID_12_);fill:#F2F5FA;}
	.st48{clip-path:url(#SVGID_12_);}
	.st49{clip-path:url(#SVGID_18_);fill:#F2F5FA;}
	.st50{clip-path:url(#SVGID_18_);}
	.st51{clip-path:url(#SVGID_24_);fill:#F2F5FA;}
	.st52{clip-path:url(#SVGID_24_);}
	.st53{fill:#AABBE9;}
	.st54{fill:#3D3FD0;}
	.st55{fill:#2C299E;}
	.st56{fill:#2E31B6;}
	.st57{fill:#333858;}
	.st58{fill:#2A81CE;}
	.st59{fill:#357BED;}
	.st60{fill:#91D9CC;}
	.st61{fill:#8CC5DE;}
	.st62{fill:#4F97E3;}
	.st63{fill:#1E6DC2;}
	.st64{opacity:0.3;fill:#FFFFFF;stroke:#28B890;stroke-width:9;stroke-linecap:round;stroke-miterlimit:10;}
	.st65{opacity:0.3;fill:#FFFFFF;stroke:#000000;stroke-width:5;stroke-linecap:round;stroke-miterlimit:10;}
	.st66{opacity:0.3;fill:#FFFFFF;}
	.st67{fill:#FFFFFF;stroke:#FFFFFF;stroke-width:5;stroke-linecap:round;stroke-miterlimit:10;}
	.st68{clip-path:url(#SVGID_28_);}
	.st69{clip-path:url(#SVGID_30_);}
	.st70{clip-path:url(#SVGID_32_);}
	.st71{clip-path:url(#SVGID_34_);}
	.st72{clip-path:url(#SVGID_36_);}
	.st73{clip-path:url(#SVGID_38_);}
	.st74{fill:url(#SVGID_39_);}
	.st75{clip-path:url(#SVGID_41_);}
	.st76{fill:url(#SVGID_42_);}
	.st77{fill:none;stroke:#B0BFD6;stroke-width:2;stroke-linecap:round;stroke-miterlimit:10;}
	.st78{fill:none;stroke:#B0BFD6;stroke-width:2;stroke-linecap:round;stroke-miterlimit:10;stroke-dasharray:0.4894,4.8937;}
	.st79{fill:none;stroke:#B0BFD6;stroke-width:2;stroke-linecap:round;stroke-miterlimit:10;stroke-dasharray:0.5413,5.4134;}
	.st80{fill:none;stroke:#B0BFD6;stroke-width:2;stroke-linecap:round;stroke-miterlimit:10;stroke-dasharray:0.5168,5.1678;}
	.st81{fill:none;stroke:#B0BFD6;stroke-width:2;stroke-linecap:round;stroke-miterlimit:10;stroke-dasharray:0.5018,5.0181;}
	.st82{fill:none;stroke:#B0BFD6;stroke-width:2;stroke-linecap:round;stroke-miterlimit:10;stroke-dasharray:0.5161,5.1609;}
	.st83{clip-path:url(#SVGID_44_);}
	.st84{fill:none;stroke:#B0BFD6;stroke-width:2;stroke-linecap:round;stroke-miterlimit:10;stroke-dasharray:0.5206,5.2063;}
	.st85{fill:none;stroke:#B0BFD6;stroke-width:2;stroke-linecap:round;stroke-miterlimit:10;stroke-dasharray:0.5109,5.1089;}
	.st86{fill:none;stroke:#B0BFD6;stroke-width:2;stroke-linecap:round;stroke-miterlimit:10;stroke-dasharray:0.5088,5.0876;}
	.st87{fill:none;stroke:#B0BFD6;stroke-width:2;stroke-linecap:round;stroke-miterlimit:10;stroke-dasharray:0.5121,5.1213;}
	.st88{fill:none;stroke:#B0BFD6;stroke-width:2;stroke-linecap:round;stroke-miterlimit:10;stroke-dasharray:0.4874,4.8744;}
	.st89{fill:url(#SVGID_45_);}
	.st90{clip-path:url(#SVGID_47_);}
	.st91{fill:url(#SVGID_48_);}
	.st92{clip-path:url(#SVGID_50_);}
	.st93{fill:url(#SVGID_51_);}
	.st94{clip-path:url(#SVGID_53_);}
	.st95{fill:url(#SVGID_54_);}
	.st96{fill:none;stroke:#BCD2FA;stroke-width:4.5;stroke-opacity:0.3;}
	.st97{fill-rule:evenodd;clip-rule:evenodd;fill:#001C9D;}
	.st98{fill:none;stroke:#246BEE;stroke-width:1.916;stroke-linecap:round;stroke-linejoin:round;}
	.st99{fill-rule:evenodd;clip-rule:evenodd;fill:#3C6DD1;}
	.st100{fill:none;stroke:#001C9D;stroke-width:1.1496;stroke-linecap:round;stroke-linejoin:round;}
	.st101{fill-rule:evenodd;clip-rule:evenodd;fill:#246BEE;}
	.st102{opacity:0.95;}
	.st103{fill-rule:evenodd;clip-rule:evenodd;fill:#00CD90;}
	.st104{fill-rule:evenodd;clip-rule:evenodd;fill:#BCD2FA;}
	.st105{opacity:0.95;fill-rule:evenodd;clip-rule:evenodd;fill:#001C9D;enable-background:new    ;}
	.st106{opacity:0.95;fill-rule:evenodd;clip-rule:evenodd;fill:#246BEE;enable-background:new    ;}
	.st107{fill:none;stroke:#001C9D;stroke-width:1.916;stroke-linecap:round;stroke-linejoin:round;}
	.st108{fill:none;stroke:#001C9D;stroke-width:2.1479;stroke-linecap:round;stroke-linejoin:round;}
	.st109{fill:none;stroke:#FFFFFF;stroke-width:1.1496;stroke-linecap:round;stroke-linejoin:round;}
	.st110{fill:none;stroke:#001C9D;stroke-width:1.7032;stroke-linecap:round;stroke-linejoin:round;}
	.st111{fill:none;stroke:#286CEE;stroke-width:1.7032;stroke-linecap:round;stroke-linejoin:round;}
	.st112{fill:#2165E2;stroke:#226AEC;stroke-width:0.5;}
	.st113{fill:none;stroke:#001C9D;stroke-width:2.0625;stroke-linecap:round;stroke-linejoin:round;}
	.st114{fill:none;stroke:#B0BFD6;stroke-width:3;stroke-miterlimit:10;}
	.st115{fill:none;stroke:#C6D1E5;stroke-width:2;stroke-linecap:round;stroke-miterlimit:10;}
	.st116{fill:none;stroke:#C6D1E5;stroke-width:3;stroke-miterlimit:10;}
	.st117{fill:none;stroke:#C6D1E5;stroke-width:3;stroke-linecap:round;stroke-miterlimit:10;}
	.st118{fill:none;stroke:#C6D1E5;stroke-width:4;stroke-linecap:round;stroke-miterlimit:10;}
	.st119{opacity:0.8;fill:none;stroke:#B0BFD6;stroke-width:6;stroke-linejoin:round;stroke-miterlimit:10;}
	.st120{opacity:0.8;fill:#C6D1E5;stroke:#B0BFD6;stroke-width:6;stroke-miterlimit:10;}
	.st121{fill:#80CFC2;}
	.st122{fill:#25A1E9;}
	.st123{fill:#486E8D;}
	.st124{fill:#29526E;}
	.st125{fill:#1D6DC0;}
	.st126{clip-path:url(#SVGID_56_);fill:#EFF3F8;}
	.st127{clip-path:url(#SVGID_56_);}
	.st128{fill:#EFF3F8;}
	.st129{opacity:0.5;stroke:#95A4C4;stroke-width:0.25;stroke-miterlimit:10;}
	.st130{fill:#95A4C4;}
	.st131{fill:#8599B3;}
	.st132{fill:#7588A4;}
	.st133{opacity:0.8;fill:none;stroke:#B5B5B5;stroke-miterlimit:10;}
	.st134{fill:#6CE8B9;stroke:#40E4B0;stroke-miterlimit:10;}
	.st135{fill:#5095E1;}
	.st136{fill:#40BF99;}
	.st137{fill:#6CE8B9;}
	.st138{fill:#367BEB;}
	.st139{fill:#8AE5C1;}
	.st140{fill:none;stroke:#40BF99;stroke-miterlimit:10;}
	.st141{fill:#41D6A5;stroke:#40E4B0;stroke-miterlimit:10;}
	.st142{clip-path:url(#SVGID_58_);fill:#EFF3F8;}
	.st143{clip-path:url(#SVGID_58_);}
	.st144{fill:#F5F5F5;}
	.st145{fill:#C0D9F5;}
	.st146{fill:#96C0EE;}
	.st147{fill:#5096E2;}
	.st148{fill:none;stroke:#67B5F4;stroke-width:2;stroke-linecap:round;stroke-miterlimit:10;}
	.st149{fill:#67B5F4;}
	.st150{fill:none;stroke:#C4CFE3;stroke-width:3;stroke-miterlimit:10;}
	.st151{fill:none;stroke:#5095E1;stroke-width:3;stroke-miterlimit:10;}
	.st152{fill:#42B78D;}
	.st153{fill:#3B536D;}
	.st154{fill:#3B536D;stroke:#5095E1;stroke-width:3;stroke-miterlimit:10;}
	.st155{opacity:0.8;fill:none;stroke:#DDE4F4;stroke-width:8;stroke-linejoin:round;stroke-miterlimit:10;}
	.st156{opacity:0.8;fill:#C4CFE3;stroke:#DDE4F4;stroke-width:8;stroke-miterlimit:10;}
	.st157{fill:none;stroke:#5095E1;stroke-width:3;stroke-linecap:round;stroke-miterlimit:10;}
	.st158{fill:none;stroke:#5095E1;stroke-width:4;stroke-linecap:round;stroke-miterlimit:10;}
	.st159{fill:none;stroke:#67B5F4;stroke-width:4;stroke-linecap:round;stroke-miterlimit:10;}
	.st160{fill:none;stroke:#42B78D;stroke-width:2.5;stroke-linecap:round;stroke-miterlimit:10;}
	.st161{fill:none;stroke:#42B78D;stroke-width:2;stroke-linecap:round;stroke-miterlimit:10;}
	.st162{fill:#41D4A3;}
	.st163{clip-path:url(#SVGID_60_);}
	.st164{fill:#B1EDD9;}
	.st165{fill:#8BE4C7;}
	.st166{fill:#D2F3E8;}
	.st167{fill:#41AB84;}
	.st168{clip-path:url(#SVGID_62_);}
	.st169{clip-path:url(#SVGID_64_);}
	.st170{clip-path:url(#SVGID_66_);}
	.st171{clip-path:url(#SVGID_68_);}
	.st172{fill:none;stroke:#AEBDD4;stroke-width:2;stroke-linecap:round;stroke-miterlimit:10;}
	.st173{fill:none;stroke:#AEBDD4;stroke-width:2;stroke-linecap:round;stroke-miterlimit:10;stroke-dasharray:0.4931,4.9315;}
	.st174{fill:none;stroke:#AEBDD4;stroke-width:2;stroke-linecap:round;stroke-miterlimit:10;stroke-dasharray:0.5027,5.0273;}
	.st175{fill:none;stroke:#AEBDD4;stroke-width:2;stroke-linecap:round;stroke-miterlimit:10;stroke-dasharray:0.5089,5.0895;}
	.st176{fill:none;stroke:#AEBDD4;stroke-width:2;stroke-linecap:round;stroke-miterlimit:10;stroke-dasharray:0.4963,4.9632;}
	.st177{fill:none;stroke:#AEBDD4;stroke-width:2;stroke-linecap:round;stroke-miterlimit:10;stroke-dasharray:0.499,4.9898;}
	.st178{clip-path:url(#SVGID_70_);}
	.st179{fill:#E4F7F1;}
</style>
<g>
	<path class="st162" d="M210.5,421L210.5,421C94.24,421,0,326.76,0,210.5v0C0,94.24,94.24,0,210.5,0h0C326.76,0,421,94.24,421,210.5
		v0C421,326.76,326.76,421,210.5,421z"/>
	<g>
		<defs>
			<path id="SVGID_59_" d="M210.5,421L210.5,421C94.24,421,0,326.76,0,210.5v0C0,94.24,94.24,0,210.5,0h0
				C326.76,0,421,94.24,421,210.5v0C421,326.76,326.76,421,210.5,421z"/>
		</defs>
		<clipPath id="SVGID_1_">
			<use xlink:href="#SVGID_59_"  style="overflow:visible;"/>
		</clipPath>
		<g style="clip-path:url(#SVGID_1_);">
			<g>
				<path class="st30" d="M167.19,211.33v-12.87h-7.27c-12.03-11.89-37.21-20.08-66.35-20.08s-54.32,8.19-66.35,20.08h-7.53v17.5
					h0.09c1.85,19.01,34.17,34.15,73.79,34.15c40.8,0,73.88-16.06,73.88-35.86C167.45,213.26,167.34,212.29,167.19,211.33z"/>
				<ellipse class="st164" cx="93.57" cy="198.46" rx="73.88" ry="35.86"/>
			</g>
			<g>
				<path class="st30" d="M167.19,196.15v-12.87h-7.27c-12.03-11.89-37.21-20.08-66.35-20.08s-54.32,8.19-66.35,20.08h-7.53v17.5
					h0.09c1.85,19.01,34.17,34.15,73.79,34.15c40.8,0,73.88-16.06,73.88-35.86C167.45,198.08,167.34,197.11,167.19,196.15z"/>
				<ellipse class="st165" cx="93.57" cy="183.28" rx="73.88" ry="35.86"/>
			</g>
			<g>
				<path class="st30" d="M110.51,272.05v-12.87h-7.27C91.22,247.29,66.03,239.1,36.9,239.1s-54.32,8.19-66.35,20.08h-7.53v17.5
					h0.09c1.85,19.01,34.17,34.15,73.79,34.15c40.8,0,73.88-16.06,73.88-35.86C110.78,273.98,110.67,273.01,110.51,272.05z"/>
				<ellipse class="st164" cx="36.9" cy="259.18" rx="73.88" ry="35.86"/>
			</g>
			<g>
				<path class="st30" d="M110.51,256.87V244h-7.27c-12.03-11.89-37.21-20.08-66.35-20.08s-54.32,8.19-66.35,20.08h-7.53v17.5h0.09
					c1.85,19.01,34.17,34.15,73.79,34.15c40.8,0,73.88-16.06,73.88-35.86C110.78,258.8,110.67,257.83,110.51,256.87z"/>
				<ellipse class="st164" cx="36.9" cy="244" rx="73.88" ry="35.86"/>
			</g>
			<g>
				<path class="st30" d="M110.51,241.69v-12.87h-7.27c-12.03-11.89-37.21-20.08-66.35-20.08s-54.32,8.19-66.35,20.08h-7.53v17.5
					h0.09c1.85,19.01,34.17,34.15,73.79,34.15c40.8,0,73.88-16.06,73.88-35.86C110.78,243.62,110.67,242.65,110.51,241.69z"/>
				<ellipse class="st164" cx="36.9" cy="228.82" rx="73.88" ry="35.86"/>
			</g>
			<g>
				<g>
					<path class="st162" d="M105.34,194.96l-4.86-5.18c5.95-0.96,12.65-3.35,16.5-7.68c3.98-4.47,1.59-7.29-2.16-8.33
						c-11.68-3.24-20.49,16.86-40.93,11.19c-9.26-2.57-12.37-9.01-6.28-15.86c4.27-4.8,10.62-7.98,18.16-9.43l4.52,5.09
						c-6.62,1.24-11.56,4-14.46,7.26c-2.82,3.17-1.8,6.01,2.28,7.14c10.43,2.89,20.08-16.97,40.76-11.23
						c9.26,2.57,13.99,8.47,6.58,16.82C120.35,190.47,112.99,193.6,105.34,194.96z"/>
				</g>
				<polygon class="st162" points="132.88,183.69 128.27,188.87 59.87,169.89 64.48,164.7 				"/>
			</g>
			<g>
				<path class="st30" d="M110.51,226.51v-12.87h-7.27c-12.03-11.89-37.21-20.08-66.35-20.08s-54.32,8.19-66.35,20.08h-7.53v17.5
					h0.09c1.85,19.01,34.17,34.15,73.79,34.15c40.8,0,73.88-16.06,73.88-35.86C110.78,228.44,110.67,227.47,110.51,226.51z"/>
				<ellipse class="st164" cx="36.9" cy="213.64" rx="73.88" ry="35.86"/>
			</g>
			<g>
				<g>
					<path class="st165" d="M42.59,228.36l-4.86-5.18c5.95-0.96,12.65-3.35,16.5-7.68c3.98-4.47,1.59-7.29-2.16-8.33
						c-11.68-3.24-20.49,16.86-40.93,11.19c-9.26-2.57-12.37-9.01-6.28-15.86c4.27-4.8,10.62-7.98,18.16-9.43l4.52,5.09
						c-6.62,1.24-11.56,4-14.46,7.26c-2.82,3.17-1.8,6.01,2.28,7.14c10.43,2.89,20.08-16.97,40.76-11.23
						c9.26,2.57,13.99,8.47,6.58,16.82C57.61,223.87,50.25,227,42.59,228.36z"/>
				</g>
				<polygon class="st165" points="70.13,217.09 65.53,222.27 -2.88,203.28 1.73,198.1 				"/>
			</g>
			<g>
				<polygon class="st166" points="149.36,149.93 290.14,208.58 290.81,321.6 149.36,265.75 				"/>
				<polygon class="st164" points="290.14,208.58 149.3,150.39 213.77,74.38 355.57,130.56 				"/>
				<polyline class="st166" points="421,153.07 355.57,130.56 213.77,74.38 280.16,94.87 				"/>
				<polygon class="st30" points="421,153.07 421,269.71 290.81,321.6 290.14,208.58 355.57,131.26 				"/>
				<polygon class="st164" points="163.24,181.65 206.65,199.74 206.86,234.59 163.24,217.37 				"/>
				<polygon class="st164" points="228.67,209.41 272.08,227.5 272.29,262.35 228.67,245.13 				"/>
				<polygon class="st162" points="349.32,233.49 379.06,222.16 379.06,286.46 349.32,297.79 				"/>
				<polygon class="st167" points="375.09,223.89 379.06,222.16 379.06,286.46 375.09,283.91 				"/>
			</g>
			<g>
				<path class="st30" d="M202.61,322.66v-12.87h-7.27c-12.03-11.89-37.21-20.08-66.35-20.08s-54.32,8.19-66.35,20.08h-7.53v17.5
					h0.09c1.85,19.01,34.17,34.15,73.79,34.15c40.8,0,73.88-16.06,73.88-35.86C202.87,324.58,202.77,323.62,202.61,322.66z"/>
				<ellipse class="st165" cx="128.99" cy="309.78" rx="73.88" ry="35.86"/>
			</g>
			<g>
				<path class="st30" d="M225.88,297.36v-12.87h-7.27c-12.03-11.89-37.21-20.08-66.35-20.08s-54.32,8.19-66.35,20.08h-7.53v17.5
					h0.09c1.85,19.01,34.17,34.15,73.79,34.15c40.8,0,73.88-16.06,73.88-35.86C226.15,299.28,226.04,298.32,225.88,297.36z"/>
				<ellipse class="st165" cx="152.27" cy="284.48" rx="73.88" ry="35.86"/>
			</g>
			<g>
				<path class="st30" d="M225.88,282.17V269.3h-7.27c-12.03-11.89-37.21-20.08-66.35-20.08s-54.32,8.19-66.35,20.08h-7.53v17.5
					h0.09c1.85,19.01,34.17,34.15,73.79,34.15c40.8,0,73.88-16.06,73.88-35.86C226.15,284.1,226.04,283.13,225.88,282.17z"/>
				<ellipse class="st164" cx="152.27" cy="269.3" rx="73.88" ry="35.86"/>
			</g>
			<g>
				<g>
					<path class="st165" d="M156.95,283.01l-4.86-5.18c5.95-0.96,12.65-3.35,16.5-7.68c3.98-4.47,1.59-7.29-2.16-8.33
						c-11.68-3.24-20.49,16.86-40.93,11.19c-9.26-2.57-12.37-9.01-6.28-15.86c4.27-4.8,10.62-7.98,18.16-9.43l4.52,5.09
						c-6.62,1.24-11.56,4-14.46,7.26c-2.82,3.17-1.8,6.01,2.28,7.14c10.43,2.89,20.08-16.97,40.76-11.23
						c9.26,2.57,13.99,8.47,6.58,16.82C171.96,278.52,164.61,281.65,156.95,283.01z"/>
				</g>
				<polygon class="st165" points="184.49,271.73 179.89,276.92 111.48,257.93 116.09,252.75 				"/>
			</g>
		</g>
	</g>
</g>
</svg>
