<?xml version="1.0" encoding="utf-8"?>
<!-- Generator: Adobe Illustrator 23.0.1, SVG Export Plug-In . SVG Version: 6.00 Build 0)  -->
<svg version="1.1" id="Capa_1" xmlns="http://www.w3.org/2000/svg" xmlns:xlink="http://www.w3.org/1999/xlink" x="0px" y="0px"
	 viewBox="0 0 421 421" style="enable-background:new 0 0 421 421;" xml:space="preserve">
<style type="text/css">
	.st0{fill:#41D4A3;}
	.st1{clip-path:url(#SVGID_2_);}
	.st2{fill:#42B88E;}
	.st3{fill:#D2F3E8;}
	.st4{fill:#B1EDD9;}
	.st5{fill:#E4F7F1;}
</style>
<path class="st0" d="M210.5,420.9L210.5,420.9C94.3,420.9,0.1,326.7,0.1,210.5l0,0C0.1,94.3,94.3,0.1,210.5,0.1l0,0
	c116.2,0,210.4,94.2,210.4,210.4l0,0C420.9,326.7,326.7,420.9,210.5,420.9z"/>
<g>
	<g>
		<defs>
			<path id="SVGID_1_" d="M210.5,421L210.5,421C94.24,421,0,326.76,0,210.5l0,0C0,94.24,94.24,0,210.5,0l0,0
				C326.76,0,421,94.24,421,210.5l0,0C421,326.76,326.76,421,210.5,421z"/>
		</defs>
		<clipPath id="SVGID_2_">
			<use xlink:href="#SVGID_1_"  style="overflow:visible;"/>
		</clipPath>
		<g class="st1">
			<g>
				<polygon class="st2" points="-19.46,153.19 -6.04,157.66 91.68,376.82 78.79,371.14 				"/>
				<polygon class="st3" points="-5.92,156.78 -19.57,152.84 239.8,48.09 251.13,50.32 				"/>
				<polygon class="st4" points="250.12,48.99 -5.92,156.78 91.68,376.82 346.27,274.98 				"/>
				<path class="st2" d="M103.58,77.16L-25,129.9c-2.97,1.24-4.29,4.72-2.88,7.62l15.13,31.11c1.28,2.64,8.46,3.54,11.18,2.45
					l119.93-49.3c2.93-1.17,4.31-4.52,3.06-7.42l0.35-22.88l-2.58-5.38C116.95,79.39,110.28,74.92,103.58,77.16z"/>
				<path class="st4" d="M110.88,80.19l-124.7,51.95c-2.97,1.24-4.29,4.72-2.88,7.62l15.13,31.11c1.28,2.64,4.39,3.84,7.11,2.75
					l124-49.6c2.93-1.17,4.31-4.52,3.06-7.42l-14.43-33.46C116.96,80.33,113.71,79.01,110.88,80.19z"/>
			</g>
			<polygon class="st5" points="261.3,55.7 5.26,163.49 91.68,376.82 346.27,274.98 			"/>
			<polygon class="st3" points="290.37,57.94 27.5,168.84 91.68,376.82 346.27,274.98 			"/>
			<polygon class="st5" points="303.79,69.12 47.75,176.91 91.68,376.82 346.27,274.98 			"/>
			<g>
				<polygon class="st4" points="357.46,73.59 101.42,181.38 91.68,376.82 346.27,274.98 				"/>
				<polygon class="st2" points="89.97,175.55 101.42,181.38 91.68,376.82 78.79,371.14 				"/>
				<polygon class="st3" points="101.42,181.38 87.77,175.2 347.14,70.45 358.43,74.57 				"/>
			</g>
			
				<ellipse transform="matrix(0.0793 -0.9969 0.9969 0.0793 58.7975 556.4247)" class="st2" cx="330.62" cy="246.38" rx="54.82" ry="39.07"/>
			<g>
				<polygon class="st4" points="360.41,229.04 308.69,247.8 307.69,263.77 359.36,244.87 				"/>
				<polygon class="st4" points="328.44,215.24 325.09,283.5 339.7,276.51 342.72,209.28 				"/>
			</g>
		</g>
	</g>
</g>
</svg>
