<?xml version="1.0" encoding="utf-8"?>
<!-- Generator: Adobe Illustrator 23.0.1, SVG Export Plug-In . SVG Version: 6.00 Build 0)  -->
<svg version="1.1" id="Capa_1" xmlns="http://www.w3.org/2000/svg" xmlns:xlink="http://www.w3.org/1999/xlink" x="0px" y="0px"
	 viewBox="0 0 421 421" style="enable-background:new 0 0 421 421;" xml:space="preserve">
<style type="text/css">
	.st0{fill:#41D4A3;}
	.st1{clip-path:url(#SVGID_2_);}
	.st2{fill:#42B88E;}
	.st3{fill:#D2F3E8;}
	.st4{fill:#B1EDD9;}
	.st5{clip-path:url(#SVGID_4_);}
</style>
<path class="st0" d="M210.5,420.9L210.5,420.9C94.3,420.9,0.1,326.7,0.1,210.5l0,0C0.1,94.3,94.3,0.1,210.5,0.1l0,0
	c116.2,0,210.4,94.2,210.4,210.4l0,0C420.9,326.7,326.7,420.9,210.5,420.9z"/>
<g>
	<g>
		<defs>
			<path id="SVGID_1_" d="M210.5,421L210.5,421C94.24,421,0,326.76,0,210.5l0,0C0,94.24,94.24,0,210.5,0l0,0
				C326.76,0,421,94.24,421,210.5l0,0C421,326.76,326.76,421,210.5,421z"/>
		</defs>
		<clipPath id="SVGID_2_">
			<use xlink:href="#SVGID_1_"  style="overflow:visible;"/>
		</clipPath>
		<g class="st1">
			<g>
				<path class="st2" d="M228.46,358.81v-15.55h-8.78c-14.53-14.37-44.97-24.27-80.17-24.27s-65.64,9.9-80.17,24.27h-9.1v21.14h0.11
					c2.23,22.97,41.29,41.26,89.16,41.26c49.3,0,89.27-19.4,89.27-43.34C228.78,361.14,228.65,359.97,228.46,358.81z"/>
				<ellipse class="st3" cx="139.51" cy="343.26" rx="89.27" ry="43.34"/>
			</g>
			<path class="st4" d="M68.94,57.56h135.78v112.02c0,5.22-2.96,9.98-7.64,12.29l-45.62,32.04c-4.23,2.09-6.9,6.4-6.9,11.11v5.33
				c0,4.71,2.68,9.02,6.9,11.11l45.27,31.87c4.89,2.42,7.98,7.4,7.98,12.85v58.4H68.94V289c0-6.01,3.76-11.38,9.4-13.44l43.25-34.38
				c4.5-1.64,7.5-5.93,7.5-10.72v-5.84c0-4.4-2.72-8.33-6.84-9.88l-45.67-34.18c-4.6-1.73-7.65-6.13-7.65-11.05V57.56H68.94z"/>
			<g>
				<path class="st2" d="M228.46,80.39V64.83h-8.78c-14.53-14.37-44.97-24.27-80.17-24.27s-65.64,9.9-80.17,24.27h-9.1v21.14h0.11
					c2.23,22.97,41.29,41.26,89.16,41.26c49.3,0,89.27-19.4,89.27-43.34C228.78,82.72,228.65,81.55,228.46,80.39z"/>
				<ellipse class="st4" cx="139.51" cy="64.83" rx="89.27" ry="43.34"/>
			</g>
			<ellipse class="st4" cx="137.74" cy="344.12" rx="68.23" ry="33.12"/>
			<ellipse class="st2" cx="136.83" cy="156.34" rx="48.98" ry="23.78"/>
			<ellipse class="st2" cx="136.83" cy="345.4" rx="48.98" ry="23.78"/>
			<ellipse class="st2" cx="136.83" cy="336.8" rx="48.98" ry="23.78"/>
			<path class="st2" d="M185.81,155.53v17.08c0,3.76-2.13,7.19-5.51,8.87c0,0-25.37,16.47-32.91,23.11
				c-2.83,2.5-4.55,4.21-6.27,7.65c-2.14,4.28-3.44,110-3.44,110h-1.72c0,0-1.27-105.66-3.44-110c-1.72-3.44-3.44-5.16-6.22-7.04
				c-8.51-5.78-32.95-24.66-32.95-24.66c-3.32-1.24-5.52-4.41-5.52-7.96v-17.05L185.81,155.53L185.81,155.53z"/>
			<rect x="87.85" y="335.99" class="st2" width="97.96" height="10.31"/>
		</g>
	</g>
	<g>
		<defs>
			<path id="SVGID_3_" d="M210.5,421L210.5,421C94.24,421,0,326.76,0,210.5l0,0C0,94.24,94.24,0,210.5,0l0,0
				C326.76,0,421,94.24,421,210.5l0,0C421,326.76,326.76,421,210.5,421z"/>
		</defs>
		<clipPath id="SVGID_4_">
			<use xlink:href="#SVGID_3_"  style="overflow:visible;"/>
		</clipPath>
		<g class="st5">
			<g>
				<polygon class="st2" points="269.17,417.63 288.93,409.89 287.21,394.43 				"/>
				<polygon class="st2" points="288.78,376.2 315.9,386.71 288.07,410.75 266.24,367.46 				"/>
				<path class="st2" d="M162.61,244.6l167.46,62.09c7.29,2.7,12.14,9.66,12.14,17.44v43.12c0,13.08-22.18,33.61-34.37,28.89
					l-158.42-76.47c-7.16-2.78-11.88-9.67-11.88-17.35l-11.88-29.93C125.66,259.44,150.46,240.09,162.61,244.6z"/>
				<path class="st3" d="M150.58,256.63l167.46,62.09c7.29,2.7,12.14,9.66,12.14,17.44v43.12c0,13.08-13.14,22.07-25.33,17.35
					L137.39,331.7c-7.16-2.78-11.88-9.67-11.88-17.35v-40.29C125.51,261.11,138.43,252.13,150.58,256.63z"/>
				<polygon class="st3" points="269.87,383.07 296.99,393.59 269.17,417.63 247.33,374.33 				"/>
			</g>
			<g>
				<polygon class="st2" points="299.1,285.29 275.9,275.84 281.05,262.09 				"/>
				<polygon class="st2" points="276.05,242.14 248.93,252.66 276.76,276.7 298.59,233.4 				"/>
				<path class="st2" d="M397.92,104.53l-167.46,62.09c-7.29,2.7-12.14,9.66-12.14,17.44v43.12c0,13.08,28.2,41.35,40.39,36.62
					l152.4-84.2c7.16-2.78,11.88-9.67,11.88-17.35l19.62-20.48C444.33,122.87,410.07,100.02,397.92,104.53z"/>
				<path class="st3" d="M417.68,124.29l-167.46,62.09c-7.29,2.7-12.14,9.66-12.14,17.44v43.12c0,13.08,13.14,22.07,25.33,17.35
					l167.46-64.93c7.16-2.78,11.88-9.67,11.88-17.35v-40.29C442.76,128.78,429.83,119.79,417.68,124.29z"/>
				<polygon class="st3" points="298.4,250.73 271.28,261.25 299.1,285.29 320.93,242 				"/>
			</g>
			<polygon class="st0" points="424.31,144.21 255.15,204.64 255.15,213.96 424.71,155.53 			"/>
			<polygon class="st0" points="368.73,183.74 259.72,223.54 259.72,232.87 369.12,195.06 			"/>
			<polygon class="st0" points="147.27,278.27 316.43,338.69 316.43,348.02 146.87,289.59 			"/>
			<polygon class="st0" points="202.85,317.8 311.86,357.6 311.86,366.93 202.45,329.12 			"/>
		</g>
	</g>
</g>
</svg>
